<?xml version="1.0" encoding="UTF-8"?>
<!-- Generated by Pixelmator Pro 3.5.5 -->
<svg width="200" height="140" viewBox="0 0 512 512" xmlns="http://www.w3.org/2000/svg" xmlns:xlink="http://www.w3.org/1999/xlink" preserveAspectRatio="xMidYMid meet">
 <g fill="#df5141">
  <path d="M258.2 393.2 l0.3 -45.6 2.5 -0.8 c1.8 -0.5 1.4 -0.6 -1.2 -0.2 -5.1 0.7 -5.1 -1.7 0 -3.3 10.8 -3.4 48.7 -12.3 52.2 -12.3 l4 0 0 5.8 c0 3.3 0.3 9.3 0.6 13.5 0.7 7.4 0.6 7.7 -1.5 7.7 -2.1 0 -2.1 0.1 -2.1 27 l0 27 -8.2 4.1 c-4.6 2.3 -17 8.4 -27.6 13.5 l-19.2 9.3 0.2 -45.7z"/>
  <path d="M130 255.9 c0 -65.4 0.4 -118.9 0.8 -118.9 0.5 0 16.6 3.8 35.8 8.5 30.1 7.3 35.1 8.2 36 7 0.6 -0.8 1.4 -1.5 1.8 -1.5 0.3 0 0.6 5.5 0.6 12.3 l0 12.2 27.5 5 c26.4 4.7 27.5 5 27.5 7.1 0 2.8 -1.7 4 -2.3 1.7 -0.3 -1 -0.5 3.9 -0.6 10.9 l-0.1 12.6 -2.7 0.6 c-1.6 0.3 -12.2 1.7 -23.8 3.1 -11.6 1.4 -22 2.8 -23.3 3.1 l-2.2 0.4 0.2 36.2 0.3 36.2 25 3.3 c13.8 1.8 25.3 3.2 25.8 3.3 0.4 0 0.8 5.7 0.8 12.8 0.1 7 0.3 11.9 0.6 10.9 0.6 -2.3 2.3 -1.1 2.3 1.7 0 2.1 -1.1 2.4 -24.7 6.6 -13.5 2.5 -25.2 5.1 -25.9 5.8 -0.7 0.6 -2 1.2 -2.8 1.2 -1.4 0 -1.6 1.7 -1.6 11.5 0 6.3 -0.3 11.5 -0.6 11.5 -0.4 0 -1.2 -0.8 -1.9 -1.7 -1.2 -1.6 -3.6 -1.1 -31.6 5.7 -16.7 4 -32.8 7.9 -35.6 8.6 l-5.3 1.2 0 -118.9z"/>
  <path d="M386 255.5 l0 -118.5 11.5 5.7 11.5 5.8 0 107.5 0 107.5 -10.5 5.3 c-5.8 2.8 -11 5.2 -11.5 5.2 -0.7 0 -1 -41.1 -1 -118.5z"/>
  <path d="M258 256.5 l0 -49.5 3.7 0 c4 0 50.9 5.8 53.1 6.5 1.9 0.7 1.8 85.5 -0.2 85.5 -0.7 0 -13.7 1.6 -28.7 3.5 -15.1 1.9 -27.5 3.5 -27.6 3.5 -0.2 0 -0.3 -22.3 -0.3 -49.5z"/>
  <path d="M281.7 174.3 c-15.7 -4.1 -25.6 -7 -25.4 -7.7 0.2 -0.6 1.9 -1 3.8 -0.9 2.9 0.2 3 0.1 0.9 -0.5 l-2.5 -0.8 -0.3 -45.7 -0.2 -45.7 27.5 13.7 27.5 13.8 0 26.9 0 26.8 2.1 -0.5 c2.1 -0.6 2.1 -0.4 1.5 5.5 -0.3 3.4 -0.6 9.6 -0.6 13.9 l0 7.9 -4.2 -0.1 c-2.4 0 -15.9 -3 -30.1 -6.6z"/>
 </g>
 <g fill="#8d3124">
  <path d="M229.8 425.4 l-26.8 -13.4 -0.2 -26.5 c-0.2 -14.6 -0.3 -32.2 -0.3 -39.2 l0 -12.7 4.1 -0.9 c3.5 -0.6 7.7 0.1 24.5 4.3 11.2 2.8 22.1 5.7 24.1 6.3 4.8 1.5 5.2 4 0.6 3.4 -1.8 -0.2 -2.5 -0.2 -1.5 0 1 0.3 2 1 2.3 1.6 0.2 0.7 0.3 21.3 0.2 45.8 l-0.3 44.7 -26.7 -13.4z"/>
  <path d="M116.8 368.4 l-10.8 -5.4 0 -107.3 0 -107.2 11.5 -5.8 11.5 -5.7 0 118.5 c0 65.2 -0.3 118.5 -0.7 118.4 -0.5 0 -5.6 -2.5 -11.5 -5.5z"/>
  <path d="M347.5 365.7 c-18.1 -4.4 -33.1 -8.1 -33.3 -8.3 -0.2 -0.1 -0.6 -5.5 -0.9 -11.9 l-0.6 -11.7 -3.6 0.7 c-5 1 -3.1 1.3 -29.3 -3.5 -16.9 -3.1 -23.8 -4.7 -23.8 -5.7 0 -0.7 0.4 -1.3 1 -1.3 0.5 0 1.1 -4.7 1.2 -10.7 l0.3 -10.7 25 -3.3 c13.8 -1.7 26 -3.2 27.3 -3.2 l2.2 -0.1 0 -39.4 c0 -21.7 -0.3 -39.7 -0.7 -39.9 -0.5 -0.3 -12.8 -2 -27.5 -3.8 l-26.8 -3.4 0 -10.7 c0 -8.9 -0.3 -10.8 -1.5 -10.8 -0.8 0 -1.5 -0.7 -1.5 -1.5 0 -0.9 0.9 -1.5 2.5 -1.5 1.4 0 2.5 -0.4 2.5 -1 0 -0.5 2.2 -1 4.9 -1 2.8 0 5.3 -0.4 5.6 -1 0.3 -0.5 3.1 -1 6.1 -1 3 0 5.4 -0.4 5.4 -1 0 -0.5 2.2 -1 4.8 -1 2.6 0 5.3 -0.5 5.9 -1.1 1.4 -1.4 12.5 -1.7 16.9 -0.6 l3.2 0.8 0.3 -11.5 c0.2 -6.3 0.7 -11.8 1.1 -12.2 0.6 -0.6 67.8 -17.3 70.1 -17.4 0.4 0 0.7 53.3 0.7 118.5 l0 118.5 -2.2 -0.1 c-1.3 -0.1 -17.1 -3.7 -35.3 -8.2z"/>
  <path d="M226.5 298.6 l-24 -3.2 -0.3 -39.2 -0.2 -39.2 2.2 -0.4 c2.3 -0.5 50.6 -6.6 52.1 -6.6 0.4 0 0.7 20.7 0.7 46 l0 46 -3.2 -0.1 c-1.8 -0.1 -14.1 -1.6 -27.3 -3.3z"/>
  <path d="M205.1 179.3 l-3.4 -0.4 0.6 -19.6 c0.4 -10.8 0.7 -28.5 0.7 -39.5 l0 -19.8 27 -13.5 27 -13.5 0 45.5 0 45.6 -2.2 0.9 c-2 0.8 -2.1 0.9 -0.4 0.9 2 0.1 2 0.1 0 1.9 -1.8 1.7 -41.6 12.4 -44.6 12 -0.7 0 -2.8 -0.3 -4.7 -0.5z"/>
 </g>
 <g fill="#5f1f19">
  <path d="M240 185.5 c-6.9 -1.3 -17.8 -3.4 -24.2 -4.6 -10.4 -1.9 -11.6 -2.3 -10.2 -3.6 0.8 -0.8 2.1 -1.2 2.9 -0.9 0.8 0.3 1.5 0 1.5 -0.5 0 -0.6 0.9 -0.9 2 -0.6 1.1 0.3 2 0.1 2 -0.5 0 -0.6 0.9 -0.8 2 -0.5 1.1 0.3 2 0.1 2 -0.5 0 -0.6 0.9 -0.8 2 -0.5 1.1 0.3 2 0.1 2 -0.5 0 -0.6 0.9 -0.8 2 -0.5 1.1 0.3 2 0.1 2 -0.5 0 -0.6 0.9 -0.8 2 -0.5 1.1 0.3 2 0.1 2 -0.5 0 -0.6 0.9 -0.8 2 -0.5 1.1 0.3 2 0.1 2 -0.5 0 -0.6 0.9 -0.8 2 -0.5 1.1 0.3 2 0.1 2 -0.5 0 -0.6 0.9 -0.8 2 -0.5 1.1 0.3 2 0.1 2 -0.5 0 -0.6 0.9 -0.8 2 -0.5 1.1 0.3 2 0.1 2 -0.5 0 -0.6 0.9 -0.8 2 -0.5 1.1 0.3 2 0.1 2 -0.3 0 -2 16 0.5 36.4 5.6 12.2 3 23 5.9 24.1 6.4 1.7 0.8 1.6 0.9 -0.6 0.4 -1.5 -0.3 -2.9 -0.1 -3.3 0.4 -0.3 0.5 -1.7 0.7 -3.1 0.4 -1.5 -0.2 -2.5 0 -2.5 0.8 0 0.7 -0.8 0.9 -2 0.5 -1.2 -0.4 -2.7 -0.2 -3.5 0.5 -0.7 0.6 -3.3 1.2 -5.7 1.2 -2.3 0.1 -4.6 0.6 -4.9 1 -0.3 0.4 -2.8 0.9 -5.5 1.1 -2.7 0.2 -5.5 0.6 -6.2 1.1 -0.7 0.4 -3.3 0.8 -5.7 0.9 -2.5 0.1 -4.5 0.5 -4.5 1 0 1.3 -10.4 0.5 -23 -1.8z"/>
 </g>
 <g fill="#f4afa8">
  <path d="M254.5 346.3 c-9.4 -1.8 -51.7 -12.8 -50.5 -13 0.8 -0.2 13.3 -2.5 27.7 -5.1 l26.3 -4.8 27.5 5 27.5 5.1 -24.4 6.1 c-25.4 6.4 -30.7 7.4 -34.1 6.7z"/>
 </g>
</svg>

