<svg width="38" height="26" viewBox="0 0 38 26" fill="none" xmlns="http://www.w3.org/2000/svg">
<path d="M37.5841 13C37.5841 13.256 37.5361 13.496 37.4401 13.72C37.3441 13.944 37.2001 14.152 37.0081 14.344L26.304 25.096C25.952 25.448 25.504 25.624 24.96 25.624C24.416 25.624 23.952 25.448 23.568 25.096C23.184 24.712 22.992 24.256 22.992 23.728C22.992 23.2 23.184 22.744 23.568 22.36L31.0561 14.92L19.2 14.92C18.656 14.92 18.2 14.736 17.832 14.368C17.464 14 17.28 13.544 17.28 13C17.28 12.456 17.464 12 17.832 11.632C18.2 11.264 18.656 11.08 19.2 11.08L31.0561 11.08L23.568 3.59198C23.216 3.23999 23.04 2.79998 23.04 2.27198C23.04 1.74398 23.232 1.28798 23.616 0.903981C23.968 0.551982 24.416 0.375979 24.96 0.375979C25.504 0.375979 25.952 0.551982 26.304 0.903981L37.0081 11.656C37.2001 11.848 37.3441 12.056 37.4401 12.28C37.5361 12.504 37.5841 12.744 37.5841 13ZM13.44 13C13.44 13.544 13.256 14 12.888 14.368C12.52 14.736 12.064 14.92 11.52 14.92L9.60002 14.92C9.05601 14.92 8.60001 14.736 8.23201 14.368C7.86401 14 7.68001 13.544 7.68001 13C7.68001 12.456 7.86401 12 8.23201 11.632C8.60001 11.264 9.05601 11.08 9.60002 11.08L11.52 11.08C12.064 11.08 12.52 11.264 12.888 11.632C13.256 12 13.44 12.456 13.44 13ZM3.84001 13C3.84001 13.544 3.65601 14 3.288 14.368C2.92 14.736 2.464 14.92 1.92 14.92C1.376 14.92 0.920001 14.736 0.552 14.368C0.184 14 -5.28034e-07 13.544 -5.51814e-07 13C-5.75593e-07 12.456 0.184 12 0.552 11.632C0.920001 11.264 1.376 11.08 1.92 11.08C2.464 11.08 2.92 11.264 3.288 11.632C3.65601 12 3.84001 12.456 3.84001 13Z" fill="#FF7D54"/>
</svg>
