<svg width="68" height="77" viewBox="0 0 68 77" fill="none" xmlns="http://www.w3.org/2000/svg">
<g clip-path="url(#clip0_1249_14039)">
<path d="M33.8746 1.40039L1.07422 20.0817V57.413L33.8746 76.3142L66.6749 57.6328V20.1759L33.8746 1.40039ZM60.6233 53.7186L33.8746 69.1242L7.12578 53.8861V23.7657L33.8746 8.36011L60.6233 23.818V53.7186Z" fill="#2474BB"/>
<path d="M46.7968 38.8567C46.282 38.8567 45.7672 38.909 45.2629 39.0032C41.3966 34.032 35.7337 30.7562 29.4826 29.8666L56.5255 14.2936L50.2323 10.6934L25.5007 24.9268C22.0547 22.415 17.2218 23.1685 14.7003 26.6118C12.1789 30.0445 12.9353 34.8588 16.3918 37.3705C19.7643 39.8195 24.4711 39.1602 27.0451 35.8844C32.1721 36.1774 36.9314 38.6264 40.1358 42.6139C39.4319 43.7965 39.0537 45.1466 39.0642 46.5281C39.0642 46.8002 39.0852 47.0827 39.1167 47.3549L11.3594 63.336L17.6211 66.9258L42.2371 52.7447C45.6726 55.2565 50.5054 54.5134 53.0269 51.0911C55.5484 47.6688 54.8025 42.8546 51.367 40.3428C50.0432 39.3695 48.4462 38.8567 46.7968 38.8567Z" fill="#76CAE7"/>
</g>
<defs>
<clipPath id="clip0_1249_14039">
<rect width="66.7478" height="76" fill="white" transform="translate(0.5 0.851562)"/>
</clipPath>
</defs>
</svg>
