<svg width="36" height="37" viewBox="0 0 36 37" fill="none" xmlns="http://www.w3.org/2000/svg">
<circle cx="18" cy="18.918" r="18" fill="white"/>
<path opacity="0.9" d="M30.2454 6.91797L30.2454 25.7765C30.2501 27.6583 28.212 28.7566 26.6846 27.7813C26.5208 27.6767 26.382 27.5377 26.2509 27.3943L7.53906 6.91797H30.2454Z" fill="#002FDF"/>
<path opacity="0.9" d="M26.2146 10.9141L26.2146 27.9234C26.2188 29.6107 24.4064 30.5996 23.0347 29.7471C22.8696 29.6445 22.7315 29.5048 22.6005 29.3611L5.78125 10.9141H26.2146Z" fill="#01E1ED"/>
<path opacity="0.9" d="M22.1838 14.9102V30.0204C22.1875 31.5081 20.5986 32.3846 19.3813 31.6571C19.2145 31.5574 19.0768 31.4172 18.9458 31.2737L4 14.9102H22.1838Z" fill="#5A46E3"/>
</svg>
