<svg width="80" height="86" viewBox="0 0 80 86" fill="none" xmlns="http://www.w3.org/2000/svg">
<path d="M75.5341 35.5381L40.1522 55.4346L2.28318 34.1304L0.5 35.1627V50.6482L40.1522 72.9379L75.5341 52.9945V61.2534L40.1522 81.1499L2.28318 59.8926L0.5 60.878V63.5058L40.1522 85.7955L79.8044 63.5058V48.0204L77.9743 47.0349L40.1522 68.2923L4.72331 48.3958V40.1838L40.1522 60.0803L79.8044 37.7906V22.5397L77.7866 21.4135L40.1522 42.577L6.60034 23.7129L40.1522 4.84876L67.7445 20.3812L70.2315 19.0203V17.1433L40.1522 0.203125L0.5 22.5397V24.9329L40.1522 47.2226L75.5341 27.2792V35.5381Z" fill="#EE3D2C"/>
</svg>
