<svg width="181" height="180" viewBox="0 0 181 180" fill="none" xmlns="http://www.w3.org/2000/svg">
<ellipse opacity="0.1" cx="90.5" cy="174.599" rx="90" ry="5.4" fill="#2A2D3E" fill-opacity="0.5"/>
<path fill-rule="evenodd" clip-rule="evenodd" d="M74.2996 30.8419C74.2996 28.2228 76.4228 26.0996 79.0419 26.0996H88.7975C91.4166 26.0996 93.5398 28.2228 93.5398 30.8419C93.5398 33.4609 91.4166 35.5841 88.7975 35.5841H79.0419C76.4228 35.5841 74.2996 33.4609 74.2996 30.8419ZM79.0419 29.6996C78.411 29.6996 77.8996 30.211 77.8996 30.8419C77.8996 31.4727 78.411 31.9841 79.0419 31.9841H88.7975C89.4284 31.9841 89.9398 31.4727 89.9398 30.8419C89.9398 30.211 89.4284 29.6996 88.7975 29.6996L79.0419 29.6996ZM36.4996 41.3996C28.5467 41.3996 22.0996 47.8467 22.0996 55.7996V126C22.0996 133.953 28.5467 140.4 36.4996 140.4H130.183C138.136 140.4 144.583 133.953 144.583 126V124.142C145.15 124.18 145.723 124.2 146.3 124.2C160.217 124.2 171.5 112.917 171.5 98.9996C171.5 85.082 160.217 73.7996 146.3 73.7996C145.723 73.7996 145.15 73.819 144.583 73.8572V55.7996C144.583 47.8467 138.136 41.3996 130.183 41.3996H36.4996ZM140.983 74.3615V67.0162H25.6996V126C25.6996 131.964 30.5349 136.8 36.4996 136.8H130.183C136.147 136.8 140.983 131.964 140.983 126V123.638C129.618 121.197 121.1 111.093 121.1 98.9996C121.1 86.9061 129.618 76.8023 140.983 74.3615ZM140.983 55.7996V63.4162H25.6996V55.7996C25.6996 49.8349 30.5349 44.9996 36.4996 44.9996H130.183C136.147 44.9996 140.983 49.8349 140.983 55.7996ZM124.7 98.9996C124.7 87.0703 134.37 77.3996 146.3 77.3996C158.229 77.3996 167.9 87.0703 167.9 98.9996C167.9 110.929 158.229 120.6 146.3 120.6C134.37 120.6 124.7 110.929 124.7 98.9996ZM141.8 87.2996C141.8 84.8143 143.814 82.7996 146.3 82.7996C148.785 82.7996 150.8 84.8143 150.8 87.2996V98.0996C150.8 100.585 148.785 102.6 146.3 102.6C143.814 102.6 141.8 100.585 141.8 98.0996V87.2996ZM146.3 86.3996C145.803 86.3996 145.4 86.8026 145.4 87.2996V98.0996C145.4 98.5967 145.803 98.9996 146.3 98.9996C146.797 98.9996 147.2 98.5967 147.2 98.0996V87.2996C147.2 86.8026 146.797 86.3996 146.3 86.3996ZM146.3 115.2C143.814 115.2 141.8 113.185 141.8 110.7C141.8 108.214 143.814 106.2 146.3 106.2C148.785 106.2 150.8 108.214 150.8 110.7C150.8 113.185 148.785 115.2 146.3 115.2ZM145.4 110.7C145.4 111.197 145.803 111.6 146.3 111.6C146.797 111.6 147.2 111.197 147.2 110.7C147.2 110.203 146.797 109.8 146.3 109.8C145.803 109.8 145.4 110.203 145.4 110.7ZM39.1996 59.3996C41.6849 59.3996 43.6996 57.3849 43.6996 54.8996C43.6996 52.4143 41.6849 50.3996 39.1996 50.3996C36.7143 50.3996 34.6996 52.4143 34.6996 54.8996C34.6996 57.3849 36.7143 59.3996 39.1996 59.3996ZM56.2996 54.8996C56.2996 57.3849 54.2849 59.3996 51.7996 59.3996C49.3143 59.3996 47.2996 57.3849 47.2996 54.8996C47.2996 52.4143 49.3143 50.3996 51.7996 50.3996C54.2849 50.3996 56.2996 52.4143 56.2996 54.8996ZM34.6996 85.4996C34.6996 83.0143 36.7143 80.9996 39.1996 80.9996H66.1996C68.6849 80.9996 70.6996 83.0143 70.6996 85.4996C70.6996 87.9849 68.6849 89.9996 66.1996 89.9996H39.1996C36.7143 89.9996 34.6996 87.9849 34.6996 85.4996ZM34.6996 99.8996C34.6996 97.4143 36.7143 95.3996 39.1996 95.3996H93.1996C95.6849 95.3996 97.6996 97.4143 97.6996 99.8996C97.6996 102.385 95.6849 104.4 93.1996 104.4H39.1996C36.7143 104.4 34.6996 102.385 34.6996 99.8996ZM34.6996 114.3C34.6996 111.814 36.7143 109.8 39.1996 109.8H93.1996C95.6849 109.8 97.6996 111.814 97.6996 114.3C97.6996 116.785 95.6849 118.8 93.1996 118.8H39.1996C36.7143 118.8 34.6996 116.785 34.6996 114.3Z" fill="#2A2D3E" fill-opacity="0.5"/>
</svg>
