<?xml version="1.0" encoding="UTF-8"?>
<svg xmlns="http://www.w3.org/2000/svg"
     viewBox="0 0 512 180"
     width="512"
     height="180">

  <text x="0" y="120"
        font-size="120"
        font-family="Arial, Helvetica, sans-serif"
        font-weight="bold">
    <tspan fill="#4285F4">G</tspan>
    <tspan fill="#EA4335">o</tspan>
    <tspan fill="#FBBC05">o</tspan>
    <tspan fill="#4285F4">g</tspan>
    <tspan fill="#34A853">l</tspan>
    <tspan fill="#EA4335">e</tspan>
  </text>

  <!-- stars -->
  <g transform="translate(0 135)" fill="#FBBC05">
    <polygon points="20,0 26,14 40,15 29,24 32,38 20,30 8,38 11,24 0,15 14,14"/>
    <polygon points="60,0 66,14 80,15 69,24 72,38 60,30 48,38 51,24 40,15 54,14"/>
    <polygon points="100,0 106,14 120,15 109,24 112,38 100,30 88,38 91,24 80,15 94,14"/>
    <polygon points="140,0 146,14 160,15 149,24 152,38 140,30 128,38 131,24 120,15 134,14"/>
    <polygon points="180,0 186,14 200,15 189,24 192,38 180,30 168,38 171,24 160,15 174,14"/>
  </g>
</svg>
