<svg width="80" height="71" viewBox="0 0 80 71" fill="none" xmlns="http://www.w3.org/2000/svg">
<path d="M17.9767 67.1533L1.90052 39.3074C1.28243 38.2369 0.957031 37.0225 0.957031 35.7863C0.957031 34.5501 1.28243 33.3357 1.90052 32.2651L17.9767 4.41989C18.5949 3.34917 19.4841 2.46005 20.5548 1.8419C21.6255 1.22375 22.8401 0.898361 24.0765 0.898438H56.2289C57.4652 0.898469 58.6797 1.22391 59.7503 1.84205C60.8209 2.4602 61.71 3.34926 62.3281 4.41989L78.4043 32.2651C79.0225 33.3358 79.348 34.5503 79.348 35.7866C79.348 37.0229 79.0225 38.2374 78.4043 39.308L62.3281 67.1533C61.7099 68.2238 60.8208 69.1127 59.7502 69.7308C58.6796 70.3488 57.4651 70.6741 56.2289 70.6741H24.0765C22.8401 70.6743 21.6255 70.3489 20.5548 69.7307C19.484 69.1126 18.5949 68.224 17.9767 67.1533Z" fill="url(#paint0_linear_1249_12320)"/>
<defs>
<linearGradient id="paint0_linear_1249_12320" x1="40.1527" y1="0.89905" x2="40.1527" y2="70.5657" gradientUnits="userSpaceOnUse">
<stop stop-color="#4387FD"/>
<stop offset="1" stop-color="#4683EA"/>
</linearGradient>
</defs>
</svg>
