<svg width="603" height="543" viewBox="0 0 603 543" fill="none" xmlns="http://www.w3.org/2000/svg">
<path fill-rule="evenodd" clip-rule="evenodd" d="M531.823 460.782C516.422 506.435 476.617 534.017 435.939 540.531C395.178 547.059 350.234 532.781 326.585 491.819C318.771 478.285 323.884 460.703 338.007 452.55C352.129 444.396 369.912 448.758 377.726 462.292C387.952 480.005 407.553 487.439 428.584 484.071C449.698 480.69 468.93 466.768 476.387 444.662L537.153 264.533C556.212 208.035 535.245 159.091 496.185 131.425C456.931 103.622 399.114 97.3114 344.08 130.183L214.67 207.479C194.724 219.393 189.436 241.745 198.049 256.663C207.485 273.006 233.07 280.374 259.195 265.291L324.998 227.3C370.802 200.855 430.075 211.866 455.931 256.649C481.483 300.907 462.159 357.087 417.253 383.908L287.842 461.204C211.704 506.681 128.539 498.764 71.2621 458.195C13.7917 417.489 -17.3221 343.916 10.2494 262.185L71.0149 82.0566C86.4157 36.4036 126.222 8.82115 166.899 2.30682C207.66 -4.22085 252.604 10.0572 276.254 51.0191C284.068 64.5533 278.954 82.1347 264.831 90.2882C250.709 98.4418 232.926 94.0799 225.112 80.5457C214.886 62.8336 195.285 55.3988 174.254 58.7669C153.14 62.1482 133.909 76.0699 126.451 98.1766L65.6856 278.305C46.6265 334.803 67.5928 383.747 106.653 411.413C145.907 439.216 203.724 445.527 258.758 412.655L388.169 335.359C408.114 323.446 413.402 301.093 404.789 286.175C396.079 271.089 373.678 264.544 353.295 276.311L287.492 314.303C240.394 341.495 175.712 336.08 146.907 286.189C121.355 241.931 140.68 185.752 185.585 158.93L314.996 81.6338C391.134 36.1571 474.299 44.0745 531.576 84.6436C589.046 125.349 620.16 198.922 592.589 280.653L531.823 460.782Z" fill="white" fill-opacity="0.05"/>
</svg>
