<svg width="27" height="27" viewBox="0 0 27 27" fill="none" xmlns="http://www.w3.org/2000/svg">
<path fill-rule="evenodd" clip-rule="evenodd" d="M17.7844 25.2879C16.2284 26.6577 14.1517 26.8292 12.4957 26.1968C10.8364 25.5631 9.46881 24.0641 9.46881 22.0289C9.46881 21.3565 10.0376 20.8114 10.7393 20.8114C11.4409 20.8114 12.0097 21.3565 12.0097 22.0289C12.0097 22.909 12.5802 23.6077 13.4363 23.9347C14.2959 24.2629 15.312 24.1579 16.0655 23.4945L22.2051 18.0897C24.1308 16.3944 24.4025 14.1195 23.5422 12.2482C22.6776 10.3677 20.659 8.88868 17.901 8.92958L11.4158 9.02575C10.4162 9.04057 9.7383 9.75975 9.7383 10.5009C9.7383 11.3129 10.5332 12.1379 11.8312 12.1379L15.1006 12.1379C17.3763 12.1379 19.3481 13.8234 19.3481 16.0485C19.3481 18.2474 17.4194 19.9251 15.169 19.9585L8.68379 20.0546C4.86824 20.1112 1.93958 18.027 0.678044 15.283C-0.587746 12.5297 -0.164318 9.11879 2.62145 6.66639L8.76106 1.26151C10.3171 -0.108345 12.3938 -0.279769 14.0498 0.352616C15.7091 0.986299 17.0767 2.48528 17.0767 4.52045C17.0767 5.19289 16.5079 5.73801 15.8062 5.73801C15.1045 5.73801 14.5357 5.19289 14.5357 4.52045C14.5357 3.64044 13.9653 2.94169 13.1092 2.61474C12.2496 2.28649 11.2335 2.39152 10.48 3.05485L4.34038 8.45973C2.41469 10.155 2.14298 12.4299 3.00329 14.3011C3.86786 16.1817 5.88653 17.6607 8.64448 17.6198L15.1297 17.5236C16.1293 17.5088 16.8072 16.7896 16.8072 16.0485C16.8072 15.2989 16.1133 14.5731 15.1006 14.5731L11.8312 14.5731C9.49114 14.5731 7.19736 12.9797 7.19736 10.5009C7.19736 8.30197 9.1261 6.62429 11.3765 6.59092L17.8617 6.49476C21.6772 6.43818 24.6059 8.52241 25.8674 11.2664C27.1332 14.0197 26.7098 17.4306 23.924 19.883L17.7844 25.2879Z" fill="white"/>
</svg>
