<svg width="447" height="543" viewBox="0 0 447 543" fill="none" xmlns="http://www.w3.org/2000/svg">
<path fill-rule="evenodd" clip-rule="evenodd" d="M375.823 460.781C360.422 506.434 320.617 534.017 279.939 540.531C239.178 547.059 194.234 532.78 170.585 491.819C162.771 478.284 167.884 460.703 182.007 452.549C196.129 444.396 213.912 448.758 221.726 462.292C231.952 480.004 251.553 487.439 272.584 484.071C293.698 480.689 312.93 466.768 320.387 444.661L381.153 264.532C400.212 208.035 379.245 159.091 340.185 131.425C300.931 103.622 243.114 97.3109 188.08 130.182L58.6696 207.479C38.7237 219.392 33.4364 241.745 42.0491 256.662C51.4849 273.006 77.0705 280.374 103.195 265.291L168.998 227.299C214.802 200.855 274.075 211.865 299.931 256.648C325.483 300.907 306.159 357.086 261.253 383.908L131.842 461.204C55.7042 506.681 -27.4607 498.763 -84.7379 458.194C-142.208 417.488 -173.322 343.916 -145.751 262.185L-84.9851 82.0561C-69.5843 36.4031 -29.7783 8.82067 10.899 2.30633C51.6598 -4.22134 96.6043 10.0567 120.254 51.0186C128.068 64.5528 122.954 82.1342 108.831 90.2877C94.709 98.4413 76.9261 94.0794 69.1121 80.5452C58.886 62.8331 39.2848 55.3983 18.254 58.7664C-2.86013 62.1477 -22.0913 76.0695 -29.5489 98.1761L-90.3144 278.305C-109.373 334.802 -88.4072 383.746 -49.3467 411.413C-10.0931 439.216 47.7236 445.526 102.758 412.655L232.169 335.359C252.114 323.445 257.402 301.092 248.789 286.175C240.079 271.089 217.678 264.543 197.295 276.311L131.492 314.303C84.3942 341.494 19.7118 336.08 -9.09254 286.189C-34.6452 241.93 -15.3205 185.751 29.5848 158.929L158.996 81.6333C235.134 36.1566 318.299 44.074 375.576 84.6431C433.046 125.349 464.16 198.921 436.589 280.652L375.823 460.781Z" fill="white" fill-opacity="0.05"/>
</svg>
