<svg width="76" height="78" viewBox="0 0 76 78" fill="none" xmlns="http://www.w3.org/2000/svg">
<path d="M57.822 57.6369C58.342 53.3051 58.1861 52.6698 61.4127 53.3715L62.2318 53.4435C64.7128 53.5563 67.9582 53.0444 69.8649 52.1587C73.9693 50.2542 76.4031 47.0745 72.356 47.91C63.1242 49.8144 62.4895 46.6885 62.4895 46.6885C72.2378 32.2246 76.3128 13.8641 72.7954 9.36978C63.2015 -2.88899 46.5947 2.90791 46.3168 3.05841L46.2284 3.07475C44.4043 2.69628 42.3629 2.47015 40.0697 2.43308C35.892 2.36443 32.722 3.52829 30.3174 5.35217C30.3174 5.35217 0.691839 -6.85318 2.07008 20.7017C2.3632 26.5633 10.4722 65.0562 20.1437 53.4295C23.6786 49.1781 27.0948 45.5833 27.0948 45.5833C28.7911 46.7103 30.822 47.2852 32.952 47.0787L33.1167 46.9383C33.0651 47.4661 33.0879 47.9825 33.1826 48.5937C30.6915 51.3775 31.4235 51.8663 26.4423 52.8915C21.4027 53.9302 24.3634 55.7794 26.296 56.2627C28.6395 56.8488 34.0608 57.6789 37.7249 52.5507L37.579 53.1358C38.5564 53.9177 38.4903 58.7558 38.6289 62.2125C38.7676 65.6694 38.9991 68.8952 39.7037 70.7971C40.4084 72.6986 41.2398 77.5974 47.7863 76.1944C53.2576 75.0219 57.4408 73.3346 57.822 57.6369Z" fill="black" stroke="black" stroke-width="3"/>
<path d="M72.3578 47.9099C63.1251 49.8143 62.4904 46.6884 62.4904 46.6884C72.2387 32.2236 76.3137 13.8627 72.797 9.36895C63.2031 -2.88909 46.5956 2.90817 46.3185 3.05868L46.2293 3.07465C44.4052 2.69599 42.3638 2.47042 40.0695 2.43297C35.8918 2.36451 32.7229 3.52819 30.3183 5.3517C30.3183 5.3517 0.692181 -6.85311 2.07005 20.7015C2.36317 26.5636 10.472 65.0564 20.1439 53.4298C23.679 49.1783 27.0945 45.5836 27.0945 45.5836C28.791 46.7106 30.822 47.2854 32.9511 47.0789L33.1165 46.9385C33.0651 47.4664 33.0886 47.9827 33.1827 48.5939C30.6911 51.3778 31.4233 51.8665 26.4424 52.8918C21.4025 53.9305 24.3632 55.7797 26.2963 56.263C28.6398 56.849 34.0615 57.6792 37.7249 52.551L37.5788 53.1361C38.5551 53.918 39.2406 58.2223 39.1257 62.1241C39.0108 66.0261 38.9341 68.7049 39.7033 70.7973C40.4726 72.8897 41.2392 77.5977 47.787 76.1947C53.2583 75.0222 56.0935 71.9838 56.488 66.9156C56.7679 63.3124 57.4013 63.845 57.4413 60.6236L57.9493 59.0986C58.5352 54.2142 58.0424 52.6385 61.4132 53.3714L62.2324 53.4434C64.7133 53.5562 67.9604 53.0443 69.8662 52.1585C73.9699 50.2541 76.4037 47.0744 72.3574 47.9099H72.3578Z" fill="#336791"/>
<path d="M38.1199 50.7109C37.8656 59.7993 38.1837 68.9511 39.073 71.1753C39.9628 73.3995 41.8671 77.7256 48.4154 76.3228C53.8862 75.1499 55.8767 72.8802 56.7405 67.8704C57.3766 64.1844 58.6031 53.9477 58.7604 51.8504" stroke="white" stroke-linecap="round" stroke-linejoin="round"/>
<path d="M30.2717 5.14928C30.2717 5.14928 0.625402 -6.96761 2.00364 20.587C2.29676 26.4491 10.4061 64.9432 20.0778 53.316C23.6122 49.064 26.8086 45.7292 26.8086 45.7292" stroke="white" stroke-linecap="round" stroke-linejoin="round"/>
<path d="M46.2853 2.93765C45.2592 3.25941 62.7765 -3.46604 72.7318 9.25471C76.2483 13.7486 72.1732 32.1095 62.4252 46.5747" stroke="white" stroke-linecap="round" stroke-linejoin="round"/>
<path d="M62.4229 46.5756C62.4229 46.5756 63.0581 49.7024 72.291 47.7967C76.3363 46.9612 73.9018 50.1413 69.799 52.0467C66.4319 53.6094 58.8829 54.0099 58.7595 51.8505C58.4422 46.279 62.7325 47.9716 62.4229 46.5756ZM62.4229 46.5756C62.143 45.3183 60.2244 44.0843 58.9552 41.0072C57.8471 38.3214 43.7584 17.7247 62.8623 20.7837C63.5621 20.6389 57.8798 2.61239 40.0012 2.31927C22.1267 2.02615 22.7132 24.301 22.7132 24.301" stroke="white" stroke-linecap="round" stroke-linejoin="bevel"/>
<path d="M33.1167 48.4795C30.6247 51.2631 31.3576 51.7519 26.3764 52.7775C21.3364 53.8164 24.2976 55.6653 26.2301 56.1483C28.5736 56.7348 33.9953 57.5649 37.6587 52.4354C38.7743 50.8736 37.6521 48.3817 36.1197 47.7464C35.3792 47.4397 34.3892 47.0554 33.1167 48.4795Z" stroke="white" stroke-linecap="round" stroke-linejoin="round"/>
<path d="M32.9518 48.4323C32.7007 46.7957 33.4896 44.8481 34.335 42.5695C35.6055 39.1508 38.5369 35.7316 36.1919 24.887C34.444 16.8057 22.7205 23.2052 22.7131 24.301C22.706 25.3964 23.2434 29.855 22.5173 35.0472C21.5698 41.8223 26.8284 47.5524 32.8837 46.9662" stroke="white" stroke-linecap="round" stroke-linejoin="round"/>
<path d="M30.1628 24.135C30.11 24.5093 30.848 25.5079 31.8103 25.6414C32.771 25.7754 33.5933 24.9949 33.6454 24.621C33.6975 24.2468 32.9604 23.8345 31.9977 23.7006C31.0365 23.5664 30.2139 23.7617 30.163 24.135H30.1628Z" fill="white" stroke="white" stroke-width="2"/>
<path d="M59.4238 23.3732C59.476 23.7475 58.7389 24.7461 57.7763 24.8796C56.8149 25.0136 55.9927 24.2331 55.94 23.8592C55.8891 23.485 56.6264 23.0728 57.588 22.9388C58.5496 22.8048 59.3717 22.9999 59.4238 23.3734V23.3732Z" fill="white" stroke="white" stroke-width="2"/>
<path d="M62.8643 20.7832C63.0227 23.7188 62.232 25.7184 62.1324 28.8434C61.9848 33.3858 64.298 38.5848 60.8125 43.7904" stroke="white" stroke-linecap="round" stroke-linejoin="round"/>
</svg>
