<?xml version="1.0" encoding="UTF-8"?>
<!-- Generated by Pixelmator Pro 3.5.5 -->
<svg width="200" height="189" viewBox="0 0 1024 966" xmlns="http://www.w3.org/2000/svg" xmlns:xlink="http://www.w3.org/1999/xlink" preserveAspectRatio="xMidYMid meet">
 <g fill="#00a3eb">
  <path d="M412 792.9 c-15.9 -1.7 -37.8 -8.2 -51.8 -15.3 -8.1 -4.1 -14.2 -8.2 -13.4 -9.1 0.4 -0.5 0.2 -0.5 -0.4 -0.2 -0.6 0.4 -4.2 -1.6 -8 -4.4 -22.3 -16.6 -40.6 -40.7 -50.5 -66.6 -1.7 -4.4 -2.9 -6.3 -4.1 -6.3 -1 0 -1.8 -0.5 -1.8 -1.2 0 -0.6 -0.6 -0.3 -1.4 0.7 -1.2 1.7 -3.1 2 -17.8 2.3 -18.1 0.5 -30.9 -1.3 -46.5 -6.4 -40.6 -13.2 -76.3 -49.9 -90.7 -93.1 -1 -2.9 -1.5 -6.3 -1.1 -7.5 0.4 -1.6 0.4 -1.9 -0.3 -0.9 -1.3 1.8 -3.7 -9 -5.2 -23.6 -1.2 -11.9 -0.2 -28.1 2.5 -41.3 2.1 -10.1 7.1 -24.5 8.3 -24.3 0.6 0.2 0.9 -0.3 0.6 -1.1 -1.5 -3.8 21.5 -39.8 24.8 -38.8 0.5 0.1 0.7 -0.2 0.4 -0.7 -1.1 -1.6 25.9 -25 27.2 -23.6 0.3 0.3 1.2 -0.4 1.9 -1.5 1.3 -1.8 1.2 -2.7 -0.7 -7.6 -9.1 -24.3 -11.7 -60.5 -6.5 -88.9 1.6 -8.7 3.8 -16.4 4.5 -16 0.5 0.3 0.6 -0.3 0.3 -1.3 -0.9 -3.5 10 -29.7 11.9 -28.6 0.7 0.4 0.8 0.2 0.4 -0.5 -0.8 -1.3 3.7 -9.8 8.7 -16.4 1.7 -2.3 4 -5.4 5 -6.7 1 -1.4 1.5 -1.9 1.1 -1.1 -0.5 0.9 -0.3 1.2 0.5 0.7 0.6 -0.4 0.9 -1.2 0.6 -1.7 -1 -1.5 19.4 -21.7 30.2 -29.8 14.9 -11.2 44.6 -26 49.5 -24.8 1 0.3 1.6 0.1 1.3 -0.3 -0.3 -0.5 1.1 -1.4 3.2 -1.9 10.4 -2.7 13.4 -3.3 14.8 -2.7 0.9 0.3 1.4 0.2 1.1 -0.3 -0.3 -0.5 1.1 -1.2 3.2 -1.6 6.6 -1.2 37.4 -1.6 47.7 -0.5 12 1.3 29.4 5.3 30.5 7 0.4 0.7 1.2 1 1.8 0.6 1.4 -0.8 12.3 3.4 11.6 4.5 -0.3 0.5 0.2 0.6 1 0.3 1.1 -0.4 1.6 0 1.7 1.2 0 1.1 0.3 1.4 0.6 0.7 0.2 -0.7 0.9 -1.3 1.4 -1.3 0.4 0 0.6 0.7 0.3 1.5 -0.5 1.2 0 1.5 2.2 1.4 4.1 -0.3 11.4 3.6 11.4 6.1 0 1.1 0.5 2 1 2 1.9 0 1 2.7 -1.2 3.7 -2.3 1 -2.3 1.2 -2 17.7 l0.3 16.7 3.3 1.4 3.4 1.4 0.7 38.5 0.7 38.5 4.2 1.4 c2.2 0.8 24.8 9.5 50.1 19.2 25.3 9.8 47.4 18.2 49.1 18.7 3 1 4.2 0.2 47 -31.7 24.2 -18 44.2 -33 44.6 -33.4 0.3 -0.3 1.2 -17.7 1.8 -38.6 1.1 -33.5 1.4 -38.2 2.9 -39.5 2.3 -2.1 4.1 -2.3 4.1 -0.5 0 0.8 1.8 2.7 4 4.1 3.2 2.1 3.8 3 2.9 4 -0.7 0.9 -0.8 1.4 -0.1 1.4 0.6 0 1.9 0.3 2.9 0.7 1.6 0.6 1.7 0.5 0.3 -1.2 -2.7 -3.4 11 7.7 17.7 14.5 3.6 3.6 9.4 10.1 12.8 14.5 7.1 9.3 8.4 11.2 6.5 10 -0.8 -0.5 -1.1 -0.3 -0.8 0.6 0.3 0.8 1.1 1.4 1.9 1.4 0.7 0 2.3 1.7 3.5 3.8 3.4 6.1 3.3 6.1 12.3 2.2 11 -4.7 25.5 -9 37.1 -11.2 11.7 -2.1 42.5 -2.4 54.5 -0.4 12.5 2 21.9 4.3 20.7 5 -0.6 0.3 0.6 0.6 2.6 0.6 4.2 0 19.2 5.2 19.2 6.7 0 0.5 -0.6 0.6 -1.2 0.2 -0.8 -0.4 -1 -0.3 -0.5 0.2 0.5 0.5 2.6 1 4.6 1.1 3.3 0.1 16.1 5.5 16.1 6.8 0 0.2 -0.7 0.1 -1.7 -0.2 -1.1 -0.4 -1.4 -0.3 -0.9 0.5 0.4 0.6 1.7 1.1 3 1 2.7 -0.2 11.9 4.9 11.1 6.2 -0.4 0.6 0.1 0.7 1.1 0.3 1.3 -0.5 1.5 -0.3 0.9 0.7 -0.5 0.8 -0.4 1.1 0.2 0.7 1.3 -0.8 10.9 6 10.5 7.4 -0.1 0.6 0.2 0.8 0.8 0.4 0.5 -0.3 2.9 1.3 5.2 3.6 2.4 2.3 3.4 3.6 2.3 2.8 -1.8 -1.3 -1.9 -1.3 -0.6 0.3 0.7 1 2.1 1.8 3 1.8 2.2 0 8.4 6.3 7.4 7.5 -0.5 0.4 -0.3 0.5 0.3 0.2 1.5 -0.8 13.6 13.1 12.8 14.5 -0.4 0.6 -0.3 0.8 0.3 0.5 1.2 -0.7 7.6 7.7 6.6 8.7 -0.3 0.3 -0.1 0.6 0.5 0.6 1.3 0 6.5 7.8 6.5 9.7 0 0.7 0.7 1.5 1.4 1.8 1 0.3 1.2 1.3 0.8 2.7 -0.4 1.4 -0.3 1.8 0.2 1.1 1 -1.4 8.5 12.7 7.9 14.9 -0.1 0.7 -0.1 0.9 0.2 0.4 0.3 -0.5 1.8 2.3 3.4 6.3 1.5 4 2.5 7.7 2.2 8.3 -0.4 0.6 -0.2 1.3 0.4 1.7 1.6 0.9 5.9 17.7 7.7 29.6 1.8 12.4 2 21.1 0.3 21.8 -1 0.4 -1 0.6 0 0.6 2.8 0.2 0.6 31.9 -3.3 47.4 -2.6 10.3 -8.6 27.6 -10 29.1 -0.8 0.7 -1.1 1.6 -0.8 1.9 0.8 0.9 -9 18.8 -15.9 29.2 -7.4 11 -8.8 12.6 -10.1 11.8 -0.6 -0.3 -0.7 -0.1 -0.3 0.5 0.9 1.4 -12.2 16.4 -13.6 15.6 -0.6 -0.4 -0.8 -0.3 -0.5 0.3 1.7 2.7 -36.6 31.5 -39.4 29.7 -0.5 -0.3 -0.9 -0.1 -0.9 0.5 0 1.5 -16.7 9.4 -20 9.5 -1.6 0.1 -2.6 0.4 -2.4 0.8 0.6 0.9 -13.1 5.2 -23.1 7.2 -21.6 4.3 -48 4.7 -67.7 1.2 -2.4 -0.5 -2.9 0 -5.3 5.1 -16.2 35.4 -49.9 59.2 -91.5 64.4 -20.6 2.5 -50.4 -2.7 -66.5 -11.7 l-4.4 -2.4 -5.2 10.2 c-2.8 5.7 -7 13.2 -9.4 16.8 -6.4 9.6 -16.5 21.1 -17.7 20.4 -0.6 -0.4 -0.8 -0.2 -0.5 0.4 0.9 1.3 -9.6 10.9 -19.9 18.4 -10 7.2 -23 14.2 -24.5 13.2 -0.7 -0.4 -0.9 -0.3 -0.6 0.3 1.4 2.2 -28.3 12.3 -31.8 10.9 -0.9 -0.3 -1.4 -0.2 -1.1 0.3 1.6 2.4 -31.9 4.6 -46.4 3z m142.8 -244.8 c5.5 -2.8 12.7 -11.2 15.1 -17.7 1.2 -3 5.4 -21.7 9.4 -41.7 l7.3 -36.2 8.9 -0.3 c9.3 -0.3 10.5 -0.8 10.5 -4.9 0 -2.2 -0.3 -2.3 -8.5 -2.3 l-8.5 0 0 -4.3 c0 -6.8 2.8 -14.7 6.5 -18.4 3.2 -3.2 3.6 -3.3 10.9 -3.3 4.2 0 7.6 -0.3 7.6 -0.7 0 -0.5 0.3 -1.8 0.6 -3 0.5 -1.9 0 -2.3 -3.6 -3.3 -13.4 -3.6 -27.7 9.7 -30.5 28.4 l-0.8 4.9 -7.8 -0.6 c-4.4 -0.3 -7.9 -0.2 -7.9 0.3 0 0.4 -0.3 2.2 -0.6 3.9 l-0.6 3.1 7.1 0 7.1 0 0 3.3 c0 4.2 -13.4 70.4 -15.6 76.9 -0.9 2.8 -2.9 5.9 -5 7.8 -3.1 2.7 -4.2 3 -9.8 3 -6.3 0 -6.4 0 -7 3.2 -0.4 2.1 -0.2 3.5 0.6 4 2 1.4 10.2 0.2 14.6 -2.1z m-284.9 -32.8 c9.9 -3.1 17.3 -12.7 15.7 -20.4 -1.4 -7.3 -9.1 -13.5 -21.1 -17.1 -9.1 -2.7 -16.2 -6.3 -17.5 -8.8 -0.6 -1.1 -1 -4.8 -0.8 -8.2 0.3 -5.4 0.6 -6.3 3.1 -8.2 3.9 -2.9 17.1 -3.5 25.3 -1.1 4.7 1.3 5.8 1.4 6.5 0.3 1.7 -2.6 0.8 -3.7 -4.8 -5.9 -15.9 -6 -33.5 -0.4 -38.8 12.5 -4.3 10.3 3.5 19.1 22.5 25.1 14.5 4.6 17 6.7 17 14.5 0 10.3 -4.7 13.3 -19.5 12.7 -7.5 -0.3 -11.2 -0.9 -14.9 -2.6 -3.9 -1.7 -5.1 -1.9 -5.8 -0.9 -1.1 1.9 -0.5 3.1 2.8 5 7.8 4.5 21.5 6 30.3 3.1z m74.3 0.2 c5.6 -0.9 11.1 -1.8 12.3 -2.1 2 -0.5 2.1 -0.8 1.7 -26 -0.4 -27.7 -0.7 -29.5 -6.2 -35.7 -4.6 -5.3 -11.9 -8.1 -21.5 -8.1 -7.4 0 -19.9 2.4 -21.7 4.2 -0.4 0.4 -0.5 1.8 -0.1 3 0.4 1.9 1 2.2 2.7 1.7 1.1 -0.4 7.7 -1 14.7 -1.2 9.6 -0.4 13.3 -0.1 16 1 4.8 2 6.9 6.6 6.9 15.1 l0 6.6 -12.2 -0.2 c-14.4 -0.3 -20 1.1 -26.7 6.8 -13.4 11.5 -9.3 29 8.1 34.6 6.7 2.1 13.2 2.2 26 0.3z m118.6 -1 c4.5 -1.4 5.3 -1.9 5 -3.8 -0.3 -2.4 0.3 -2.4 -15.9 -1.1 -12.3 0.9 -18 -0.6 -23.9 -6.5 -5 -5 -7 -10 -7 -17.5 l0 -4.6 25.4 0 25.4 0 0.6 -3.7 c1.3 -7.8 -2.3 -18.7 -8.4 -25.6 -7.2 -8.3 -22.3 -10.7 -33.1 -5.4 -6.9 3.3 -13.2 9.9 -16.7 17.5 -2.4 5 -2.7 6.9 -2.7 16.2 0 9.9 0.2 11 3.3 17.2 4.2 8.6 11.4 15.1 19.7 17.8 7.1 2.4 19.8 2.2 28.3 -0.5z m68.2 -1.1 c3.9 -2.1 6.3 -4.3 8.4 -7.8 3.9 -6.2 3.9 -10.9 0.1 -16.8 -3.1 -4.9 -6.7 -6.9 -22 -12.3 -11.7 -4.1 -14.5 -6.5 -15.2 -12.9 -1.2 -10.5 3.7 -14.1 18.1 -13.4 5 0.3 11 1.2 13.3 2 l4.1 1.5 0.5 -2.6 c0.6 -3.1 0 -3.6 -7.3 -5.8 -23.5 -7.3 -46.4 9.7 -35.5 26.4 2.6 3.9 10 8 21.8 11.9 14 4.7 15.7 6.2 15.7 14.4 0 7.6 -0.9 9.3 -6 11.4 -7.5 3 -21.2 1.8 -32.1 -2.8 -1.1 -0.5 -1.8 -0.1 -2.2 1.4 -0.4 1.6 0.3 2.5 3.4 4 11.4 5.8 25.7 6.4 34.9 1.4z m129.4 0.2 c13.4 -6.6 21.5 -24.4 18.6 -40.7 -3.3 -17.9 -15.5 -29.3 -31.5 -29.4 -30.4 -0.1 -43.7 43.7 -19.9 65.4 3.4 3.1 7.4 5.7 10.2 6.6 6.7 2.1 15.9 1.4 22.6 -1.9z m133.6 1.4 c5.1 -1.5 6.3 -2.5 5.6 -4.6 -0.5 -1.7 -1.8 -1.9 -14 -1.9 -13.3 0 -13.5 0 -17.7 -3 -6.7 -4.7 -9.3 -10.7 -9.7 -22.5 -0.5 -12.1 1.4 -19.4 6.4 -24.9 5.7 -6.4 8.9 -7.4 22.1 -6.9 8.5 0.3 11.3 0.1 11.3 -0.8 0 -0.7 0.3 -1.9 0.6 -2.7 0.8 -2.2 -13 -5.2 -19.8 -4.3 -18.8 2.5 -32.6 22.1 -29.7 42.4 2.2 15.3 10.2 25.2 24.2 29.8 4.5 1.5 14.7 1.2 20.7 -0.6z m71.5 -0.6 c6.1 -2.1 5.7 -1.7 5 -4.6 l-0.6 -2.4 -6.7 1.4 c-9.6 2 -21.9 1.1 -28 -2 -6.7 -3.5 -10.3 -9.6 -11 -18.8 l-0.5 -7 25.8 0 25.8 0 -0.5 -8.2 c-0.5 -9.9 -3.4 -16.4 -9.7 -22.1 -5.9 -5.3 -10.4 -7 -19.1 -7.1 -9.3 -0.1 -15.5 2.8 -22.3 10.4 -6.8 7.6 -9.1 14.3 -9.2 26.5 0 8.7 0.3 10.7 2.6 15.5 4.7 10.1 12.5 16.8 22.8 19.7 5.8 1.6 18.9 1 25.6 -1.3z m-475.5 -50.4 l0 -52 -4.5 0 -4.5 0 0 52 0 52 4.5 0 4.5 0 0 -52z m319.2 27.3 c0.3 -28 0.8 -29.9 8.1 -35.7 3.2 -2.6 4.8 -3.1 10.8 -3.4 6.2 -0.4 7 -0.7 7.5 -2.7 0.3 -1.3 0.4 -3.2 0.2 -4.2 -0.8 -4.6 -12.5 -1.1 -17.6 5.3 -2.1 2.6 -3.5 3.4 -5.9 3.4 -3.3 0 -3.3 0 -3.3 -5 l0 -5 -4.5 0 -4.5 0 0 36 0 36 4.4 0 4.5 0 0.3 -24.7z m235.5 -41 c-0.2 -1.6 -0.4 -0.5 -0.4 2.2 0 2.8 0.2 4 0.4 2.8 0.2 -1.3 0.2 -3.5 0 -5z"/>
  <path d="M318 508.8 c-5.5 -2.8 -7.5 -7.4 -6.7 -15.6 0.7 -6.6 2.8 -9.9 7.5 -11.9 4.3 -1.8 18.9 -2.9 25.6 -1.9 l4.6 0.7 0 14.4 0 14.3 -5 1.1 c-2.8 0.6 -8.8 1.1 -13.3 1.1 -6.6 0 -9.2 -0.5 -12.7 -2.2z"/>
  <path d="M421 471.3 c0 -5.2 3.4 -13.6 6.6 -16.5 6 -5.3 19.6 -6.5 27.4 -2.5 5.7 2.8 8.1 7.5 8.8 16.8 l0.5 6.9 -21.7 0 -21.6 0 0 -4.7z"/>
  <path d="M636 508.2 c-6.6 -3.3 -9.7 -10.3 -10.7 -24.2 -0.9 -14.6 2 -24.7 9 -30.3 3 -2.5 4.8 -3 10.5 -3.5 16.4 -1.1 24 6.8 25 26.1 0.8 16.4 -2.8 26.7 -11.1 31.7 -4.3 2.7 -17.6 2.8 -22.7 0.2z"/>
  <path d="M824 471 c0 -8.2 4.4 -15.6 11.4 -19.2 5.4 -2.8 19.1 -2.3 23.3 0.8 4.5 3.3 7.3 9.8 7.3 17.1 l0 6.3 -21 0 -21 0 0 -5z"/>
 </g>
 <g fill="#ffffff">
  <path d="M536.8 553.4 c-2.1 -0.6 -2.2 -1.1 -0.6 -8.5 l1.1 -5.6 6.2 0.5 c5.8 0.4 6.4 0.3 9.8 -2.7 2.2 -2 4.2 -5 5.1 -7.9 1.2 -3.5 15.6 -71.8 15.6 -73.8 0 -0.2 -3.3 -0.4 -7.2 -0.6 -8.2 -0.3 -7.7 0.4 -6.3 -9.2 l0.7 -4.9 7.8 0.7 7.8 0.6 0.7 -4.7 c1.8 -11.9 7.4 -20.8 16.4 -26.1 4 -2.3 5.7 -2.7 12.6 -2.6 4.4 0 9.2 0.5 10.6 1.1 l2.7 1.2 -1.8 6.3 c-1.2 4.3 -2.2 6.2 -3.1 5.9 -0.8 -0.2 -4 -0.6 -7.1 -0.9 -5.5 -0.4 -5.9 -0.3 -9.2 3 -2.1 2.1 -4 5.4 -5 8.8 -2.5 8.3 -2.7 8 7.4 8 l9 0 -0.6 4.3 c-1.2 9.3 -0.4 8.6 -10.6 8.9 l-9.2 0.3 -7.3 36.2 c-4 20 -8.2 38.7 -9.4 41.7 -2.4 6.6 -9.6 14.9 -15.3 17.8 -4 2.1 -16.7 3.4 -20.8 2.2z"/>
  <path d="M245 518.4 c-3 -0.8 -7.4 -2.6 -9.7 -4 l-4.3 -2.5 2 -5 c1 -2.8 2.1 -5.4 2.4 -5.7 0.3 -0.3 3.7 0.9 7.6 2.7 13.1 6.1 26.4 5.1 29.9 -2.3 3.1 -6.5 -1.2 -10.5 -16.7 -15.5 -15.6 -4.9 -22.2 -10.8 -23 -20.4 -0.8 -10.2 4.2 -18.4 14.1 -22.8 7.6 -3.4 22.4 -3.4 32 0 3.7 1.4 6.7 3 6.7 3.7 0 2.7 -2.4 11.4 -3.2 11.4 -0.4 0 -4.2 -1.2 -8.5 -2.6 -13.3 -4.5 -24.4 -2.1 -25.1 5.4 -0.2 1.7 0.2 4 0.8 5.2 1.3 2.5 8.4 6.1 17.5 8.8 14 4.2 20.6 10.5 21.3 20.4 0.8 11.2 -5 19.6 -15.9 23.1 -6.4 2.1 -20.3 2.1 -27.9 0.1z"/>
  <path d="M315.2 518.2 c-11 -3.6 -16.1 -10.6 -16.2 -22.5 0 -8.2 2.1 -12.9 8.1 -18.1 6.6 -5.6 12.4 -7.1 26.7 -7 l12.2 0.1 0 -3.5 c0 -5.2 -2.8 -10.2 -6.6 -11.8 -5 -2.1 -18.7 -1.7 -25.4 0.6 -3 1.1 -5.8 1.9 -6.2 2 -0.3 0 -1.5 -2.7 -2.7 -6.1 l-2 -6 3.5 -1.5 c6.8 -2.9 18.6 -4.7 26.9 -4.1 13.3 0.8 22.1 5.9 25.9 15.1 1 2.5 1.6 11 2.1 31.9 l0.6 28.4 -2.3 0.6 c-1.3 0.4 -7 1.3 -12.6 2.2 -13.2 1.9 -25.2 1.8 -32 -0.3z m25.8 -11.3 l5 -1.1 0 -11.3 0 -11.2 -3.1 -0.7 c-8 -1.6 -20.1 0.2 -24.3 3.5 -3.5 2.8 -5 8.6 -3.4 13.5 2.4 7.2 12.6 10.1 25.8 7.3z"/>
  <path d="M431.5 518 c-13 -4.2 -21.9 -16.3 -23.4 -31.7 -2 -20.1 5.2 -35.9 19.8 -43 5 -2.5 6.7 -2.8 15.6 -2.8 11.7 0 18.4 2.4 23.6 8.3 6.6 7.5 10.1 20 8.5 30.7 l-0.7 4.5 -25.5 0 c-28.4 0 -26.5 -0.6 -24.2 7.4 1.8 5.9 9.1 12.9 15 14.4 2.6 0.7 6.3 1.2 8.2 1.2 4.7 0 17.6 -2.8 19.3 -4.1 1.6 -1.4 3.4 2.8 3.6 8.6 0.2 4 0.2 4 -5.3 5.9 -8.4 2.9 -26.6 3.2 -34.5 0.6z m29.1 -49.2 c-1.1 -7.1 -3.6 -11.1 -8.6 -13.5 -5.2 -2.7 -10.6 -2.9 -15.7 -0.8 -5.2 2.2 -7.2 4.2 -9.9 10 -4.2 8.9 -5 8.5 16.2 8.5 l18.7 0 -0.7 -4.2z"/>
  <path d="M503.6 518.9 c-2.2 -0.5 -6.6 -2.1 -9.9 -3.6 -5.5 -2.5 -5.8 -2.8 -5.3 -5.4 0.3 -1.5 1.2 -4.4 2 -6.4 l1.5 -3.5 3.3 2 c4.7 2.9 15.3 6 20.4 6 5.3 0 12.1 -2.6 13.4 -5.1 1.7 -3.2 1.1 -7.9 -1.3 -10.3 -1.3 -1.3 -7.1 -3.9 -13.5 -6 -17.4 -5.8 -23.5 -10.9 -24.8 -20.7 -1.3 -9.6 4.1 -18.7 13.7 -22.8 9.6 -4.2 24.9 -3.8 35.7 0.9 4.8 2.1 4.8 2.2 2.6 9.5 l-1.5 5.4 -3.7 -1.6 c-5.9 -2.5 -13.4 -4.3 -18 -4.3 -11.4 0 -16.7 8.7 -9.4 15.3 1.1 1 7.1 3.6 13.3 5.8 13.7 4.9 17.2 6.9 20.7 12.2 2.2 3.4 2.7 5.2 2.7 10.7 0 9 -3.7 15.2 -11.5 19.5 -5 2.7 -6.5 3 -16 3.2 -5.8 0.1 -12.3 -0.2 -14.4 -0.8z"/>
  <path d="M634.8 518.5 c-6.3 -2.1 -15 -10.1 -18.3 -17.1 -3.6 -7.6 -5.2 -19.4 -3.8 -28.7 2 -14 8.7 -24.3 19.1 -29.4 5.1 -2.5 6.8 -2.8 15.7 -2.8 11.7 0 16.5 1.7 23.9 8.5 14.7 13.6 15.3 45.1 1.1 60.8 -5.9 6.6 -13.1 9.6 -23.9 9.9 -6 0.2 -10.7 -0.2 -13.8 -1.2z m20.9 -13.5 c7.9 -4.7 12.1 -15.9 11 -28.9 -1.3 -15.3 -10.3 -24.4 -22.4 -22.6 -3.5 0.5 -5.5 1.6 -8.7 4.9 -5.2 5.2 -7.1 11.2 -7 22.1 0.1 17.7 6.4 26.5 18.9 26.5 3.2 0 6.2 -0.7 8.2 -2z"/>
  <path d="M770.3 518.6 c-14.6 -4.8 -22.2 -14.7 -24.4 -31.9 -3.3 -25.1 10.9 -44.9 33.1 -46.4 8.6 -0.6 22.8 1.9 23.6 4.2 0.4 1 -2.3 12.5 -2.9 12.5 -0.1 0 -2.4 -0.7 -5.1 -1.5 -6.5 -2 -15.9 -1.9 -20.2 0.1 -16 7.6 -18.2 36.6 -3.5 46.9 3.7 2.6 5.3 3 12.1 3.3 5.6 0.3 9.4 -0.1 13 -1.3 2.8 -0.9 5.3 -1.5 5.4 -1.4 0.5 0.6 2.6 9.7 2.6 11.2 0 4 -25 7.2 -33.7 4.3z"/>
  <path d="M836.9 518.7 c-10.3 -2.9 -18.1 -9.6 -22.8 -19.7 -2.4 -5 -2.6 -6.6 -2.6 -18.5 0 -11.2 0.4 -13.8 2.3 -18.7 2.9 -7.2 10 -15.1 16.6 -18.6 4.6 -2.5 6.1 -2.7 15.6 -2.6 11.9 0.1 15.6 1.2 22.1 7.1 2.2 2 5.2 6 6.7 8.7 2.2 4.4 2.7 6.6 3 16.4 l0.4 11.2 -25.7 0 -25.8 0 0.7 4.3 c2.3 14.4 15.3 21.1 33.1 17.3 4.4 -1 8.9 -2 10.1 -2.3 1.8 -0.4 2.2 0.2 3.3 5.2 0.7 3.2 0.9 6.1 0.4 6.5 -4.2 3.8 -28.4 6.2 -37.4 3.7z m26.1 -49.1 c0 -4.1 -3.8 -11.5 -7.2 -14 -4.1 -2.9 -12.5 -3.3 -17.4 -0.8 -2.1 1.1 -4.6 2.8 -5.5 3.8 -2.5 2.8 -5.9 10 -5.9 12.4 0 2.1 0.3 2.1 18 1.9 l18 -0.2 0 -3.1z"/>
  <path d="M377.9 518.6 c-0.2 -0.2 -0.3 -25 -0.1 -55 l0.2 -54.6 7.5 0 7.5 0 0 55 0 55 -7.3 0 c-4.1 0 -7.6 -0.2 -7.8 -0.4z"/>
  <path d="M696.4 517.4 c0.3 -0.9 0.6 -18.4 0.6 -39 l0 -37.4 7.5 0 7.5 0 0 5.2 0 5.3 3 -3.7 c4 -4.9 10.3 -7.8 16.9 -7.8 7.4 0 9.2 1.1 8.1 5.2 -0.4 1.8 -1.1 4.9 -1.4 6.8 l-0.6 3.5 -6.9 0 c-6.2 0 -7.3 0.3 -10.8 3.1 -7.3 5.8 -7.8 7.7 -8.1 35.7 l-0.3 24.7 -8.1 0 c-6.9 0 -7.9 -0.2 -7.4 -1.6z"/>
 </g>
 <g fill="#e9c895">
  <path d="M507.5 375.6 c-15.9 -6.2 -40.5 -15.7 -54.6 -21.1 l-25.7 -9.8 -0.7 -38.4 -0.7 -38.4 -3.4 -1.4 -3.4 -1.4 0 -11 c0 -10.4 0.1 -11.1 2 -11.1 1.8 0 2 0.7 2 7.8 0 4.2 0.3 9.4 0.6 11.5 0.6 3.2 1 3.7 3.3 3.7 1.4 0 6 1.1 10.1 2.4 4.1 1.4 15.2 4.8 24.5 7.6 9.4 2.9 27.6 8.5 40.5 12.5 12.9 4 27 8.3 31.4 9.6 l7.8 2.3 -0.7 40.3 c-0.6 29.8 -0.5 40.3 0.4 40.3 2 0 1.2 2.7 -1.4 4.4 -1.3 0.9 -2.6 1.6 -2.7 1.5 -0.2 0 -13.3 -5.1 -29.3 -11.3z m-14.1 -72.5 c1 -1.6 -1.8 -2.9 -15.6 -7 -15.1 -4.5 -16.8 -4.8 -16.8 -2.6 0 1.9 0.3 2 16 6.6 13.4 4 15.6 4.4 16.4 3z"/>
  <path d="M531.5 258 c-2.2 -0.4 -12.3 -3 -22.5 -5.8 -30.2 -8.3 -78.9 -21.1 -86.2 -22.7 -1.9 -0.3 -2.8 -1.2 -2.8 -2.5 0 -2.5 1.7 -3.4 6 -3.2 2.6 0.1 3 -0.1 1.5 -0.7 -1.8 -0.7 -1.7 -0.8 0.7 -1.3 2 -0.4 2.5 -0.1 2 1 -0.3 1 0 1.3 0.9 1 0.8 -0.3 1.4 -1.1 1.4 -1.9 0 -1.7 9.8 -5.9 14.5 -6.2 1.9 -0.1 3.4 -0.7 3.3 -1.3 -0.3 -1.5 13.5 -6.8 17.2 -6.6 2 0.1 2.6 -0.1 1.7 -0.7 -1 -0.6 -0.5 -1.1 1.8 -2 1.8 -0.6 3.7 -0.8 4.4 -0.4 0.6 0.3 0.8 0.2 0.3 -0.2 -0.7 -0.9 10.3 -5.9 11.1 -5 0.2 0.2 1.1 -0.3 2 -1.1 0.9 -1 2.4 -1.3 4.1 -0.9 1.7 0.3 2.1 0.2 1.3 -0.3 -0.9 -0.6 0.4 -1.5 4.5 -3 3.2 -1.2 6.5 -2.3 7.3 -2.4 0.8 -0.2 1.7 -0.6 2 -0.9 1.2 -1.4 9.1 -3.8 10.7 -3.3 1.3 0.4 1.4 0.3 0.5 -0.4 -1 -0.6 0.3 -1.5 4.6 -3 3.2 -1.2 6.5 -2.2 7.3 -2.1 0.8 0.1 0.3 0.5 -1.1 1 -2 0.7 -1.8 0.8 1.5 0.5 4.6 -0.4 15.7 1.3 15.1 2.3 -0.2 0.3 1.9 0.7 4.7 0.8 3.4 0.1 5.3 0.7 5.9 1.7 0.5 0.9 1.4 1.6 2.1 1.6 0.8 0 0.6 -0.4 -0.3 -1.1 -1.9 -1.3 -3.9 -1.7 35.5 6.1 17.5 3.5 31.4 6.5 30.7 6.8 -1.6 0.5 -0.5 2.2 1.4 2.2 0.8 0 1.2 -0.4 0.9 -1 -0.7 -1.2 1.9 -1.2 5.5 0 1.7 0.5 1.9 0.8 0.8 0.9 -1.1 0.1 -1.8 0.9 -1.8 2 0 1.1 -1.2 2.3 -3 3.1 -1.7 0.7 -3.4 1.8 -3.8 2.5 -0.4 0.7 -11 7 -23.7 14 -12.6 7 -31.2 17.5 -41.2 23.1 -19 10.9 -19.7 11.1 -28.8 9.4z m72 -60 c-1.1 -0.5 -2.9 -0.9 -4 -0.9 l-2 0 2 0.9 c1.1 0.5 2.9 0.9 4 0.9 l2 0 -2 -0.9z"/>
 </g>
 <g fill="#c7a173">
  <path d="M538 384.4 c-1.6 -0.5 -1.6 -16.1 -0.3 -63.5 l0.5 -17.6 -7.9 -2.2 c-4.3 -1.3 -17.7 -5.4 -29.8 -9.1 -29.5 -9.2 -49.1 -15.2 -60 -18.5 -10.4 -3.1 -17.5 -6.2 -17.5 -7.7 0 -2.1 10.8 0 29.1 5.7 10.1 3.1 31.5 9.6 47.4 14.5 16 4.9 30.2 9.2 31.8 9.6 l2.7 0.6 0 -6.9 c0 -3.9 0.3 -13.2 0.7 -20.7 0.6 -13.1 0.7 -13.7 2.6 -13.2 1.4 0.3 7.7 -2.7 19.1 -9.3 9.4 -5.3 28 -15.7 41.3 -23.1 13.3 -7.4 24 -13.7 23.8 -14.1 -0.6 -0.8 6.2 -3.9 8.5 -3.9 1.6 0 2 0.7 2.1 3.3 0 2.7 0.2 2.9 0.9 1.2 0.5 -1.3 0.8 1.8 0.8 8.5 0 7.1 -0.3 9.4 -0.8 7 -0.5 -2.6 -0.7 -1.4 -0.7 4.5 0 6.7 0.1 7.3 0.7 3.5 l0.7 -4.5 0.1 5.9 c0.2 4 -0.2 6.2 -1.2 7 -1.2 0.9 -1.7 8.4 -2.6 39.1 -0.7 20.9 -1.5 38.3 -1.8 38.6 -1.5 1.4 -88.2 65.9 -88.4 65.8 -0.2 -0.1 -1 -0.3 -1.8 -0.5z m94.7 -170.6 c-0.2 -1.3 -0.4 -0.5 -0.4 1.7 -0.1 2.2 0.1 3.2 0.4 2.3 0.2 -1 0.2 -2.8 0 -4z"/>
 </g>
 <g fill="#f8d3a1">
  <path d="M531.5 299.9 c-2.7 -1 -18.3 -5.8 -34.5 -10.8 -16.2 -4.9 -37.7 -11.5 -47.8 -14.6 -10.1 -3.1 -19 -5.4 -19.8 -5.1 -0.8 0.3 -1.4 0.1 -1.4 -0.4 0 -0.4 -1.4 -1.1 -3 -1.5 -1.7 -0.4 -3.5 -1.6 -4.1 -2.7 -0.6 -1.1 -1.2 -7.2 -1.4 -13.6 -0.2 -6.4 -0.7 -14.7 -1 -18.4 -0.6 -6.1 -0.5 -6.7 1.4 -7.8 1.7 -0.9 2.5 -0.8 3.7 0.5 0.8 0.8 2.4 1.5 3.5 1.5 1.1 0 9.5 2 18.7 4.5 9.2 2.4 23.5 6.2 31.7 8.4 8.3 2.1 23.6 6.2 34 9.1 10.5 2.9 20.7 5.5 22.8 5.8 l3.9 0.4 -0.7 23.2 c-0.4 12.7 -0.8 23.1 -0.9 23.2 0 0 -2.3 -0.8 -5.1 -1.7z"/>
 </g>
 <g fill="#711726">
  <path d="M475.1 303.4 c-8.5 -2.4 -16 -4.9 -16.7 -5.5 -3.1 -2.6 -0.9 -9.9 2.9 -9.9 3 0 32.8 8.8 34.4 10.2 1.6 1.3 1.7 7 0.1 8.6 -1.8 1.8 -4 1.5 -20.7 -3.4z"/>
 </g>
</svg>

