<svg width="80" height="76" viewBox="0 0 80 76" fill="none" xmlns="http://www.w3.org/2000/svg">
<g clip-path="url(#clip0_1249_14002)">
<path fill-rule="evenodd" clip-rule="evenodd" d="M73.2637 32.8226L64.3737 38.0054L73.2637 43.1445C73.7953 43.4554 74.2612 43.8692 74.6348 44.3623C75.0083 44.8554 75.2822 45.4181 75.4409 46.0183C75.5995 46.6184 75.6398 47.2444 75.5593 47.8603C75.4789 48.4762 75.2793 49.0701 74.972 49.608C74.6647 50.1459 74.2558 50.6173 73.7684 50.9953C73.2811 51.3732 72.725 51.6504 72.1318 51.8109C71.5386 51.9714 70.92 52.0121 70.3112 51.9307C69.7025 51.8493 69.1155 51.6474 68.5839 51.3365L52.6554 42.0522C51.9254 41.6249 51.323 41.0061 50.9116 40.2612C50.5002 39.5162 50.2952 38.6727 50.3183 37.8197C50.3307 37.4501 50.3869 37.0834 50.4856 36.7274C50.8116 35.5335 51.5866 34.5161 52.6446 33.893L68.5731 24.6415C69.1071 24.3293 69.6966 24.1267 70.3081 24.0453C70.9195 23.9639 71.5408 24.0053 72.1364 24.1671C72.732 24.3289 73.2902 24.608 73.7791 24.9883C74.268 25.3687 74.6779 25.8428 74.9855 26.3836C75.2944 26.9198 75.4949 27.5126 75.5755 28.1278C75.6561 28.743 75.6151 29.3683 75.4549 29.9673C75.2947 30.5663 75.0185 31.1272 74.6424 31.6173C74.2662 32.1075 73.7976 32.5172 73.2637 32.8226ZM64.8487 57.9447L48.9257 48.6768C48.2133 48.2632 47.4063 48.0453 46.5849 48.045C45.7635 48.0446 44.9564 48.2617 44.2436 48.6748C43.5309 49.0878 42.9374 49.6824 42.5221 50.3994C42.1068 51.1164 41.8842 51.9309 41.8763 52.7619V71.2758C41.9176 72.506 42.4296 73.6717 43.3042 74.5272C44.1788 75.3826 45.3477 75.8608 46.5642 75.8608C47.7807 75.8608 48.9495 75.3826 49.8242 74.5272C50.6988 73.6717 51.2108 72.506 51.252 71.2758V60.8993L60.1636 66.0821C60.6952 66.3934 61.2822 66.5956 61.8911 66.6774C62.5 66.7591 63.1188 66.7187 63.7122 66.5584C64.3057 66.3982 64.8621 66.1212 65.3498 65.7434C65.8374 65.3656 66.2467 64.8942 66.5544 64.3563C66.862 63.8184 67.0619 63.2245 67.1427 62.6084C67.2235 61.9924 67.1835 61.3662 67.0251 60.7658C66.8668 60.1654 66.593 59.6024 66.2196 59.1089C65.8462 58.6155 65.3804 58.2014 64.8487 57.8901V57.9447ZM46.4967 39.8349L39.8576 46.4704C39.6305 46.6841 39.3361 46.8098 39.0264 46.8254H37.0778C36.7688 46.8067 36.4754 46.6814 36.2466 46.4704L29.6453 39.8131C29.4388 39.5851 29.3167 39.2917 29.2998 38.983V37.0169C29.3176 36.7067 29.4395 36.4119 29.6453 36.1813L36.2466 29.5239C36.476 29.3146 36.7694 29.1912 37.0778 29.1744H39.0264C39.3353 29.189 39.6295 29.3126 39.8576 29.5239L46.4751 36.1813C46.6793 36.4125 46.7993 36.7073 46.8152 37.0169V38.983C46.8002 39.2911 46.6801 39.5845 46.4751 39.8131L46.4967 39.8349ZM41.207 37.989C41.1815 37.6706 41.0503 37.3703 40.8346 37.137L38.9184 35.2201C38.6888 35.0111 38.3955 34.8878 38.0872 34.8706H38.017C37.71 34.8868 37.4182 35.0104 37.1912 35.2201L35.275 37.137C35.0693 37.3715 34.9493 37.6703 34.935 37.9835V38.0545C34.9486 38.363 35.0689 38.6569 35.275 38.8846L37.202 40.7961C37.4295 41.0051 37.721 41.1285 38.0278 41.1456H38.098C38.4063 41.1284 38.6996 41.0051 38.9292 40.7961L40.8454 38.8683C41.0524 38.6401 41.1761 38.3472 41.1962 38.0381L41.207 37.989ZM11.2555 18.066L27.1839 27.3066C27.8971 27.7201 28.7048 27.9377 29.5268 27.9376C30.3488 27.9376 31.1565 27.7201 31.8697 27.3065C32.5828 26.893 33.1767 26.2979 33.5923 25.5804C34.0079 24.8628 34.2307 24.0477 34.2387 23.2161V4.71851C34.1974 3.48839 33.6854 2.32261 32.8108 1.46718C31.9362 0.611743 30.7673 0.133572 29.5508 0.133572C28.3343 0.133572 27.1654 0.611743 26.2908 1.46718C25.4162 2.32261 24.9042 3.48839 24.8629 4.71851V15.0951L15.9406 9.90678C15.409 9.59552 14.822 9.39325 14.2131 9.31152C13.6042 9.2298 12.9854 9.27022 12.392 9.43047C11.7985 9.59072 11.2421 9.86767 10.7544 10.2455C10.2668 10.6233 9.85744 11.0947 9.54981 11.6326C9.24218 12.1705 9.04227 12.7644 8.9615 13.3805C8.88073 13.9965 8.92068 14.6227 9.07906 15.2231C9.23744 15.8235 9.51117 16.3865 9.88459 16.88C10.258 17.3734 10.7238 17.7875 11.2555 18.0988V18.066ZM46.2106 27.9401C47.1512 28.0154 48.0923 27.8002 48.9095 27.323L64.8325 18.0387C65.3642 17.7275 65.83 17.3133 66.2034 16.8199C66.5768 16.3265 66.8506 15.7635 67.0089 15.163C67.1673 14.5626 67.2073 13.9364 67.1265 13.3204C67.0457 12.7043 66.8458 12.1104 66.5382 11.5725C66.2306 11.0346 65.8212 10.5633 65.3336 10.1854C64.8459 9.8076 64.2895 9.53065 63.696 9.3704C62.4975 9.04675 61.221 9.21808 60.1474 9.8467L51.2359 15.0787V4.70212C51.1946 3.47201 50.6826 2.30623 49.808 1.45079C48.9334 0.595359 47.7645 0.117188 46.548 0.117188C45.3315 0.117188 44.1626 0.595359 43.288 1.45079C42.4134 2.30623 41.9014 3.47201 41.8601 4.70212V23.2161C41.8587 24.4147 42.307 25.5692 43.1147 26.4462C43.9223 27.3231 45.0288 27.8571 46.2106 27.9401ZM29.9043 48.0597C28.9636 47.9823 28.022 48.1977 27.2055 48.6768L11.2555 57.9229C10.1818 58.5515 9.39893 59.5859 9.07906 60.7986C8.75919 62.0112 8.92852 63.3028 9.54981 64.3891C10.1711 65.4754 11.1935 66.2675 12.392 66.5912C13.5905 66.9148 14.867 66.7435 15.9406 66.1149L24.8629 60.9321V71.3086C24.9042 72.5387 25.4162 73.7045 26.2908 74.5599C27.1654 75.4154 28.3343 75.8936 29.5508 75.8936C30.7673 75.8936 31.9362 75.4154 32.8108 74.5599C33.6854 73.7045 34.1974 72.5387 34.2387 71.3086V52.7619C34.2362 51.5693 33.7881 50.4218 32.9842 49.5496C32.1802 48.6774 31.08 48.1452 29.9043 48.0597ZM25.5862 39.3926C25.8937 38.3695 25.8474 37.271 25.4549 36.2781C25.0624 35.2853 24.3471 34.4575 23.4272 33.9312L7.5149 24.6524C6.44025 24.0296 5.16578 23.8621 3.96953 24.1864C2.77329 24.5108 1.75236 25.3006 1.12948 26.3836C0.82111 26.9196 0.620838 27.5122 0.540249 28.127C0.45966 28.7418 0.500353 29.3667 0.659976 29.9654C0.819598 30.5642 1.09498 31.1251 1.47019 31.6155C1.84541 32.1059 2.313 32.5162 2.84593 32.8226L11.7359 38.0054L2.84593 43.1445C2.31431 43.4547 1.84828 43.8678 1.47444 44.3602C1.1006 44.8526 0.826287 45.4147 0.66715 46.0144C0.508014 46.6141 0.467174 47.2396 0.546964 47.8553C0.626754 48.4709 0.82561 49.0646 1.13218 49.6025C1.43875 50.1404 1.84702 50.612 2.3337 50.9902C2.82038 51.3685 3.37592 51.646 3.96861 51.807C4.5613 51.968 5.17953 52.0094 5.788 51.9286C6.39648 51.8479 6.98328 51.6467 7.5149 51.3365L23.4272 42.0522C24.4519 41.4734 25.2215 40.5229 25.5808 39.3926H25.5862ZM75.8653 8.6889H75.1475V9.5791H75.8599C76.1892 9.5791 76.3997 9.42618 76.3997 9.14219C76.3997 8.8582 76.2054 8.6889 75.8599 8.6889H75.8653ZM74.2784 7.8697H75.8977C76.7721 7.8697 77.3551 8.35576 77.3551 9.10942C77.3579 9.31921 77.3054 9.52595 77.2029 9.70835C77.1004 9.89075 76.9517 10.0422 76.7721 10.1471L77.4037 11.0646V11.2503H76.4915L75.8599 10.3765H75.1475V11.2503H74.273L74.2784 7.8697ZM78.7585 9.62825C78.7847 9.21481 78.7258 8.80036 78.5855 8.41114C78.4453 8.02192 78.2266 7.66641 77.9435 7.36711C77.6604 7.06782 77.3189 6.83125 76.9408 6.6724C76.5626 6.51356 76.156 6.43588 75.7466 6.44429C73.96 6.44429 72.7725 7.74955 72.7725 9.62825C72.7725 11.4196 73.96 12.8067 75.7466 12.8067C76.1562 12.8167 76.5633 12.7403 76.9421 12.5824C77.3209 12.4245 77.6631 12.1886 77.9469 11.8896C78.2307 11.5907 78.4499 11.2352 78.5905 10.8459C78.7312 10.4566 78.7902 10.0419 78.7639 9.62825H78.7585ZM79.5033 9.62825C79.5033 11.7527 78.1 13.5276 75.725 13.5276C73.35 13.5276 72.006 11.7363 72.006 9.62825C72.006 7.52017 73.3932 5.72885 75.725 5.72885C78.0568 5.72885 79.498 7.49833 79.498 9.62825H79.5033Z" fill="#29B5E8"/>
</g>
<defs>
<clipPath id="clip0_1249_14002">
<rect width="79.3044" height="76" fill="white" transform="translate(0.5)"/>
</clipPath>
</defs>
</svg>
