<svg width="80" height="88" viewBox="0 0 80 88" fill="none" xmlns="http://www.w3.org/2000/svg">
<g clip-path="url(#clip0_1249_14046)">
<path d="M50.5701 41.1211L33.1871 46.7973L18.0642 53.4719L13.8333 54.5888C12.7558 55.6137 11.626 56.6518 10.404 57.7029C9.06387 58.8591 7.81568 59.9104 6.85637 60.6723C5.79218 61.5133 4.21548 63.0899 3.41406 64.0883C2.21834 65.5861 1.27236 67.1759 0.865025 68.398C0.142319 70.6055 0.497246 72.839 1.88995 74.902C3.67684 77.5297 7.2376 80.21 11.3894 82.0364C13.5049 82.9695 17.0656 84.165 19.7458 84.835C24.1999 85.965 32.8192 87.187 37.5623 87.3711C38.5213 87.4105 39.809 87.4105 39.8615 87.3711C39.9667 87.3052 40.7025 85.8994 41.5567 84.152C44.4735 78.1999 46.5757 72.6157 47.7188 67.8463C48.402 64.9558 48.9406 61.106 49.2952 56.5469C49.3874 55.2723 49.4266 51.0021 49.3478 49.5567C49.2295 47.1917 49.0192 45.2735 48.691 43.3946C48.6384 43.1186 48.6251 42.8689 48.6515 42.8558C48.7039 42.8164 48.8616 42.7639 51.0033 42.1462L50.5699 41.1215V41.1212H50.5701V41.1211ZM46.6022 43.4469C46.7598 43.4469 47.1801 47.4805 47.2852 50.0297C47.3116 50.5683 47.2983 50.923 47.2721 50.923C47.1671 50.923 45.0516 49.675 43.5408 48.729C42.2268 47.9012 39.7305 46.2456 39.3364 45.9302C39.2047 45.8383 39.2178 45.8252 40.2954 45.4572C42.1215 44.8396 46.4577 43.4469 46.6022 43.4469ZM37.7464 46.3638C37.8647 46.3638 38.1667 46.5344 38.8894 46.9813C41.596 48.6762 45.2751 50.726 46.8517 51.4093C47.3378 51.6195 47.3902 51.5406 46.2736 52.3028C43.8823 53.932 40.8995 55.5349 37.2468 57.151C36.6031 57.4401 36.0645 57.6634 36.0514 57.6634C36.0253 57.6634 36.1038 57.3351 36.2088 56.9408C37.0892 53.669 37.5886 50.358 37.615 47.7039C37.6281 46.3899 37.6281 46.3899 37.7464 46.3507C37.72 46.3638 37.7331 46.3638 37.7464 46.3638ZM35.9201 47.0601C35.9987 47.1388 35.9463 50.0821 35.8411 50.8835C35.6046 52.8019 35.2368 54.5888 34.6326 56.5992C34.488 57.085 34.3564 57.4926 34.3304 57.5188C34.2776 57.5844 32.4775 55.8238 31.8863 55.1406C30.8614 53.958 30.0601 52.7755 29.4688 51.6193C29.1666 51.028 28.6937 49.8719 28.733 49.8324C28.9432 49.6879 35.8675 47.0076 35.9201 47.0601ZM27.327 50.4368C27.3401 50.4368 27.3532 50.4368 27.3665 50.4499C27.3927 50.4762 27.4849 50.6865 27.5637 50.9229C27.984 52.0661 28.9299 53.7478 29.7447 54.8253C30.6382 56.0079 31.8076 57.2691 32.7797 58.0969C33.0952 58.3597 33.3841 58.6092 33.4234 58.6487C33.5024 58.7276 33.5286 58.7143 31.3869 59.5291C28.9039 60.4751 26.1971 61.4211 23.0962 62.4196C22.3554 62.6584 21.6154 62.8993 20.876 63.1423C20.7575 63.1818 20.7971 63.116 21.1387 62.5774C22.6759 60.1729 25.0145 55.456 26.3285 52.1186C26.5519 51.5405 26.7752 50.9624 26.8148 50.831C26.8673 50.6469 26.9329 50.5813 27.1036 50.4893C27.1956 50.4632 27.2877 50.4368 27.327 50.4368ZM24.6995 51.5274C24.7388 51.5538 24.0687 52.9595 23.4117 54.2472C22.1372 56.7304 20.7445 59.1745 18.8787 62.1438C18.5634 62.6562 18.2613 63.1293 18.2218 63.1818C18.1562 63.2739 18.1298 63.2475 17.9196 62.8402C17.4729 61.9599 17.1049 60.8298 16.9078 59.7918C16.7107 58.7669 16.7502 56.9801 16.9736 55.8765C17.1443 55.0619 17.1313 55.0751 17.5254 54.8779C19.2072 54.0239 24.6469 51.4748 24.6995 51.5274ZM47.3642 52.4472V52.999C47.3642 55.9291 47.0489 59.9496 46.5888 62.8797C46.51 63.3921 46.4441 63.8124 46.4312 63.8257C46.4312 63.8257 46.0502 63.7207 45.6035 63.5891C43.6327 62.9715 41.491 62.0649 39.5595 61.0009C38.2848 60.3045 36.4324 59.1612 36.485 59.1086C36.4979 59.0956 37.0499 58.8065 37.6936 58.4648C40.2692 57.1247 42.7391 55.6794 44.8808 54.2473C45.6823 53.7085 46.8909 52.8415 47.1539 52.6049L47.3642 52.4472ZM14.7793 56.3362C14.8318 56.3362 14.8187 56.4413 14.7398 56.9143C14.6873 57.256 14.6216 57.8867 14.5955 58.3201C14.4902 60.2385 14.8057 61.6576 15.7517 63.6021C16.0145 64.1408 16.2248 64.5876 16.2115 64.6006C16.1195 64.6795 7.4216 67.2287 4.68849 67.9775C3.87393 68.2008 3.16456 68.3979 3.11173 68.4109C3.01993 68.4373 3.00672 68.4242 3.04611 68.2006C3.34826 66.2693 4.81991 63.7466 6.86952 61.618C8.23604 60.199 9.32664 59.3713 11.1924 58.3069C12.5325 57.545 14.5953 56.402 14.753 56.3493C14.7531 56.3362 14.7662 56.3362 14.7793 56.3362ZM35.2763 60.002C35.2893 59.9889 35.6046 60.1598 35.9856 60.3831C38.7974 62.0124 42.7128 63.5234 46.0499 64.2986L46.3524 64.3644L45.9318 64.6006C44.1844 65.573 38.4426 67.9642 32.5696 70.1586C31.7154 70.4738 30.8746 70.7892 30.7167 70.8549C30.5591 70.9205 30.4145 70.96 30.4145 70.9469C30.4145 70.9336 30.6512 70.4738 30.9532 69.9089C32.5956 66.8343 34.2512 63.0897 35.0921 60.4882C35.1974 60.2385 35.2629 60.0153 35.2763 60.002ZM33.1871 60.6853C33.2005 60.6987 33.0952 60.9744 32.9638 61.2897C31.8207 64.062 30.3227 67.0842 28.4045 70.474C27.9184 71.3413 27.511 72.0377 27.4977 72.0377C27.4848 72.0377 27.0905 71.801 26.6175 71.512C23.8319 69.8039 21.3619 67.7017 19.7459 65.6651L19.5093 65.376L20.7048 65.0475C24.9882 63.8782 28.6276 62.6169 32.241 61.0665C32.7535 60.8562 33.1741 60.6853 33.1871 60.6853ZM46.1685 65.2183C46.1816 65.5205 45.5115 68.2272 44.9596 70.1848C44.4998 71.8271 44.1054 73.1149 43.3829 75.3878C43.0676 76.3866 42.7919 77.2141 42.7786 77.2141C42.7655 77.2141 42.6867 77.2011 42.6078 77.1749C38.7056 76.4652 35.2106 75.4798 31.9258 74.166C31.0059 73.798 29.6921 73.2067 29.6133 73.1411C29.5871 73.1145 30.3755 72.7469 31.374 72.3133C37.3523 69.6986 43.5539 66.7291 45.6823 65.4548C45.9319 65.2971 46.129 65.2183 46.1685 65.2183ZM16.1984 66.2432C16.2247 66.2694 14.556 68.674 12.2172 71.9455C11.4026 73.0887 10.4566 74.4288 10.1019 74.928C9.74713 75.4274 9.20849 76.2157 8.90627 76.6888L8.35419 77.5428L7.7629 77.0436C7.06649 76.4653 5.85786 75.2303 5.31916 74.5471C4.18912 73.1413 3.42721 71.6566 3.12499 70.3034C2.98043 69.6726 2.98043 69.3571 3.11166 69.3179C3.3087 69.2654 6.81686 68.4375 10.1018 67.6753C11.9282 67.255 14.0434 66.7558 14.8055 66.5718C15.5676 66.3876 16.1853 66.2432 16.1984 66.2432ZM17.8801 66.8871L18.3004 67.36C20.1927 69.4754 22.1241 71.0392 24.4628 72.4054C24.8834 72.6421 25.1986 72.8521 25.1722 72.8655C25.0805 72.9311 17.0523 75.782 13.334 77.0697C11.245 77.8055 9.52368 78.3967 9.51071 78.3967C9.49763 78.3967 9.37929 78.318 9.24769 78.226L9.01134 78.0551L9.39232 77.5034C10.6273 75.7164 12.178 73.7588 15.5546 69.6857L17.8801 66.8871ZM28.3652 74.3893C28.3781 74.3763 28.9563 74.5864 29.6657 74.8495C31.374 75.4932 32.7271 75.9004 34.5405 76.3603C36.7741 76.9254 40.0063 77.4772 41.9115 77.6348C42.2006 77.661 42.3583 77.6874 42.3057 77.7268C42.2135 77.7794 40.2823 78.4233 38.8632 78.87C36.6032 79.5794 29.7053 81.6159 24.0818 83.2321C23.0438 83.5343 22.1503 83.784 22.0978 83.797C21.9665 83.8234 21.5328 83.7049 21.5328 83.6524C21.5328 83.6263 21.8481 83.219 22.2292 82.7722C24.1211 80.5123 26.0001 77.9896 27.5637 75.5983C27.9972 74.9411 28.3652 74.4025 28.3652 74.3893ZM26.0525 74.4552C26.0656 74.4683 25.1329 75.9661 23.5038 78.5413C22.8073 79.6318 22.032 80.8669 21.7561 81.3005C21.4933 81.7209 21.0991 82.378 20.8759 82.7458L20.4948 83.416L20.2977 83.3634C19.8246 83.232 16.5005 82.0625 15.6201 81.7078C14.5295 81.2742 13.3996 80.7487 12.5586 80.302C11.5077 79.737 10.1939 78.896 10.2989 78.8699C10.3251 78.8568 12.1252 78.3704 14.293 77.7793C20.048 76.2156 23.2407 75.3091 25.33 74.6522C25.7111 74.5339 26.0395 74.4419 26.0525 74.4552ZM42.4107 78.2916H42.4238C42.4763 78.4231 40.348 84.3357 39.5724 86.2013C39.4019 86.6218 39.3364 86.7271 39.2442 86.7137C39.0208 86.7008 35.9333 86.2671 34.0542 85.9912C30.7827 85.4919 25.2905 84.5326 23.911 84.2174L23.5957 84.1518L25.5532 83.7048C29.7578 82.7588 31.7812 82.2464 33.8308 81.6158C36.4193 80.8274 38.9815 79.842 41.5698 78.6333C41.977 78.4492 42.3187 78.3047 42.4107 78.2916Z" fill="url(#paint0_linear_1249_14046)"/>
<path d="M32.6486 0.600282C32.3595 0.561081 27.695 2.24286 24.6863 3.46464C20.6262 5.12036 17.473 6.69714 15.5284 8.06331C14.8058 8.57595 13.8991 9.48243 13.7547 9.83712C13.7022 9.96854 13.6758 10.1262 13.6758 10.2838L15.4365 11.9525L19.6277 13.2927L29.6003 15.0797L41.0049 17.0374L41.1232 16.052C41.0839 16.052 41.0575 16.0389 41.0184 16.0389L39.5201 15.8023L39.2182 15.2637C37.6677 12.5307 35.9596 9.14077 34.9611 6.85455C34.186 5.08074 33.4502 3.03125 33.0428 1.55959C32.8194 0.666142 32.7932 0.613612 32.6489 0.600525V0.600221H32.6486V0.600282ZM32.4381 1.27058H32.4516C32.4645 1.28355 32.5171 1.65169 32.5697 2.08502C32.7929 3.92476 33.2005 5.69826 33.8442 7.61664C34.3303 9.062 34.3303 8.98323 33.7654 8.81231C32.4252 8.44454 26.4207 7.40652 22.0717 6.80214C21.3753 6.71011 20.784 6.61819 20.784 6.6051C20.7315 6.55257 23.9242 4.88376 25.3301 4.22697C27.1301 3.39902 32.0704 1.3362 32.4381 1.27058ZM19.7721 7.15683L20.2848 7.32745C23.07 8.27361 30.073 9.61385 33.9361 9.92915C34.3695 9.9686 34.7376 10.0081 34.7505 10.0081C34.7636 10.0212 34.396 10.2183 33.9228 10.4416C32.0573 11.3745 30.0075 12.5176 28.5884 13.398C28.1681 13.6606 27.7869 13.871 27.7345 13.871C27.6819 13.871 27.4061 13.8184 27.117 13.7789L26.5915 13.7L25.2777 12.4123C22.9652 10.1656 21.152 8.43133 20.4556 7.77423L19.7721 7.15683ZM19.2468 7.56405L21.0993 9.87662C22.1109 11.1511 23.1358 12.3993 23.3594 12.6751C23.5825 12.9512 23.7666 13.1746 23.7535 13.1877C23.7009 13.2271 21.0733 12.7146 19.6803 12.3994C18.2482 12.0708 17.657 11.9131 16.7767 11.6373L16.054 11.4007V11.2167C16.067 10.3363 17.184 9.0225 19.076 7.68244L19.2468 7.56405ZM34.9872 10.7175C35.0399 10.7175 35.1054 10.8357 35.263 11.1904C35.7098 12.1758 37.1028 14.83 37.4441 15.3424C37.5495 15.5134 37.7331 15.5265 35.8807 15.2242C31.4267 14.5014 29.9944 14.2652 29.9944 14.2389C29.9944 14.2258 30.1258 14.1337 30.2966 14.0417C31.6763 13.2798 33.0689 12.3074 34.3041 11.2694C34.6063 11.0197 34.8822 10.7832 34.9347 10.7437C34.9477 10.7175 34.9742 10.7044 34.9872 10.7175Z" fill="url(#paint1_linear_1249_14046)"/>
<path d="M13.8462 9.65234C13.8462 9.65234 13.5573 10.1124 13.8331 10.7957C14.0041 11.216 14.5033 11.7283 15.0682 12.254C15.0682 12.254 20.915 17.9563 21.6246 18.771C24.8566 22.5024 26.2626 26.1814 26.394 31.2532C26.4729 34.5116 25.8552 37.3759 24.318 40.7002C21.5851 46.6654 15.8169 53.2481 6.92188 60.5535L8.22284 60.1198C9.0637 59.489 10.2068 58.8192 12.8871 57.3475C19.0755 53.9574 26.0392 50.8435 34.5797 47.6376C46.8775 43.0125 67.0987 37.5991 78.6083 35.8387L79.8041 35.6546L79.62 35.3655C78.5691 33.7362 77.8462 32.7246 76.979 31.6472C74.4565 28.5201 71.3953 25.9844 67.6504 23.882C62.4999 21.0047 55.8382 18.7579 47.4032 17.0893C45.8134 16.7738 42.3184 16.1694 39.4804 15.7359C33.4627 14.8032 29.5735 14.1593 25.2903 13.4235C23.7531 13.1606 21.4536 12.7665 19.9295 12.4381C19.1412 12.2671 17.6303 11.9124 16.4478 11.5052C15.5018 11.1371 14.1352 10.7692 13.8462 9.65234ZM17.2362 12.9373C17.2492 12.9243 17.4594 13.0029 17.7355 13.0949C18.2348 13.2655 18.8785 13.4627 19.6408 13.673C20.2174 13.8317 20.7956 13.9849 21.3751 14.1329C22.1634 14.3298 22.8202 14.5138 22.8333 14.5138C22.9255 14.6059 24.2526 18.8495 24.6993 20.4788C24.8699 21.0965 25.0015 21.6219 24.9884 21.6219C24.9749 21.6353 24.8305 21.4118 24.6598 21.1096C23.1225 18.4029 20.6918 15.6569 17.8799 13.4494C17.5122 13.1869 17.2362 12.9503 17.2362 12.9373ZM23.7006 14.7242C23.7663 14.7242 24.0554 14.7636 24.41 14.8424C26.6437 15.3416 30.6511 16.1037 33.2131 16.5373C33.6468 16.603 33.9885 16.682 33.9885 16.7081C33.9885 16.7345 33.8307 16.8263 33.6335 16.9315C33.2001 17.1548 31.4525 18.1927 30.8745 18.587C29.416 19.5592 28.1022 20.6103 27.1561 21.5563C26.7751 21.9374 26.4465 22.2527 26.4465 22.2527C26.4465 22.2527 26.3679 22.0295 26.3019 21.7534C25.8292 19.927 24.8436 17.2203 23.9502 15.3153C23.8056 15.0132 23.6873 14.7372 23.6873 14.711C23.6873 14.7372 23.6873 14.7242 23.7006 14.7242ZM35.0789 16.8921C35.1577 16.9183 35.2892 17.3651 35.5519 18.3504C36.0381 20.2557 36.2615 22.3842 36.1827 24.3682C36.1563 24.9201 36.1301 25.4324 36.1037 25.4983L36.0643 25.6295L35.3811 25.4062C33.9752 24.9595 31.6892 24.2893 29.7315 23.7375C28.6145 23.4353 27.7081 23.1594 27.7081 23.1332C27.7081 23.0542 29.3374 21.425 30.0337 20.8076C31.3605 19.638 34.9606 16.8526 35.0789 16.8921ZM35.9855 17.0233C36.025 16.9841 41.4251 17.9168 43.8821 18.3899C45.7086 18.7446 48.3626 19.2965 48.5202 19.3623C48.599 19.3884 48.323 19.5461 47.4427 19.9402C43.9741 21.5039 41.3987 22.9096 38.8368 24.6178C38.1667 25.0646 37.6017 25.4324 37.5886 25.4324C37.5755 25.4324 37.5623 25.0515 37.5623 24.5915C37.5623 22.0952 37.063 19.5724 36.1431 17.4439C36.0512 17.2337 35.9724 17.0367 35.9855 17.0233ZM49.9523 19.7827C49.9918 19.8221 49.8208 20.8864 49.6632 21.517C49.1902 23.4748 47.9158 26.3787 46.3524 29.1114C46.0762 29.5976 45.8267 29.9918 45.8002 30.0049C45.7742 30.018 45.4194 29.8208 45.012 29.5843C43.488 28.6909 41.7537 27.85 39.8615 27.0616C39.3362 26.8383 38.8762 26.6542 38.863 26.6282C38.7709 26.5492 43.0017 23.7506 45.2354 22.4104C47.0092 21.3331 49.8997 19.73 49.9523 19.7827ZM50.9508 19.9403C51.0691 19.9403 53.4604 20.5973 54.7084 20.9652C57.7962 21.885 61.3437 23.1857 63.6562 24.2368L64.6152 24.6706L63.9453 24.8281C58.2957 26.1288 53.4604 27.6268 48.796 29.5188C48.4149 29.6764 48.0733 29.8079 48.0473 29.8079C48.0209 29.8079 48.1523 29.5057 48.3231 29.1377C49.729 26.1552 50.6356 23.0412 50.8587 20.3869C50.8721 20.1373 50.9113 19.9403 50.9508 19.9403ZM27.143 25.4062C27.1824 25.3667 29.0088 25.8004 29.9942 26.0761C31.492 26.4967 34.6715 27.5608 34.6715 27.6398C34.6715 27.6529 34.3169 27.9551 33.8966 28.3231C32.1754 29.7553 30.5197 31.2661 28.5356 33.1844C27.9443 33.7496 27.4452 34.2094 27.419 34.2094C27.3926 34.2094 27.3797 34.1304 27.3926 34.0254C27.6948 31.8179 27.6293 28.98 27.2088 26.1025C27.1692 25.7345 27.1299 25.4193 27.143 25.4062ZM65.5221 25.4457C65.5481 25.4718 64.6811 26.8383 64.1293 27.6134C63.3411 28.7434 62.1845 30.2415 59.5699 33.5262C58.1905 35.2604 56.6399 37.2183 56.1277 37.8752C55.6019 38.5321 55.1685 39.0838 55.1552 39.0838C55.1421 39.0838 54.9715 38.8475 54.7874 38.5585C53.3158 36.351 51.5551 34.4195 49.466 32.6852C49.0718 32.3567 48.6384 32.0019 48.4939 31.8968C48.3493 31.7917 48.231 31.6866 48.231 31.6735C48.231 31.6342 50.4644 30.6748 52.1596 29.9917C55.1291 28.7829 59.1755 27.3376 62.2109 26.4047C63.8007 25.9055 65.4957 25.4193 65.5221 25.4457ZM66.5337 25.7083C66.5861 25.6953 66.9016 25.853 67.2826 26.0761C70.4755 27.9024 73.6024 30.2545 76.0727 32.6721C76.769 33.3554 78.4902 35.1423 78.4638 35.1554C78.4638 35.1554 77.8594 35.2079 77.1501 35.2604C71.6185 35.681 64.5368 36.8502 57.7306 38.4925C57.2708 38.5975 56.8636 38.6896 56.8372 38.6896C56.8112 38.6896 57.3234 38.1772 57.9673 37.5598C61.9615 33.71 63.7879 31.2793 65.9425 26.9433C66.2446 26.2997 66.5075 25.7478 66.5337 25.7083C66.5206 25.7083 66.5206 25.7083 66.5337 25.7083ZM37.2731 28.7042C37.4572 28.7434 39.1652 29.5452 40.4528 30.1888C41.6353 30.7799 43.4092 31.7261 43.5011 31.8048C43.5142 31.8179 42.8834 32.1464 42.1085 32.5275C39.6382 33.7626 37.5229 34.9318 35.3154 36.2721C34.6848 36.6532 34.1592 36.9687 34.1462 36.9687C34.0936 36.9687 34.1066 36.9158 34.4615 36.2721C35.644 34.1174 36.5899 31.5422 37.1288 29.0325C37.1811 28.8355 37.2338 28.7042 37.2731 28.7042ZM35.565 29.0194C35.6045 29.0589 35.1578 30.6749 34.8819 31.5552C34.3431 33.2239 33.4365 35.313 32.5564 36.8897C32.3459 37.2574 32.0306 37.7962 31.8598 38.0983L31.5314 38.6239L30.7956 37.9146C29.9417 37.0867 29.2452 36.5743 28.3519 36.1144C27.9969 35.9306 27.7211 35.7727 27.7211 35.7466C27.7211 35.6415 29.9679 33.605 31.6891 32.1334C32.9241 31.0691 35.5256 28.98 35.565 29.0194ZM46.0108 33.316L46.6546 33.7363C48.1259 34.6956 49.8602 35.97 51.1875 37.0867C51.9362 37.7042 53.3814 39.0051 53.6707 39.3204L53.8281 39.4914L52.7641 39.7935C46.7464 41.462 42.0952 42.9468 36.6687 44.944C36.0643 45.1673 35.5519 45.3512 35.5124 45.3512C35.4338 45.3512 35.3679 45.4169 36.7214 44.1686C40.1902 40.9761 43.2645 37.4546 45.5508 34.0253L46.0108 33.316ZM43.2646 33.9992C43.2908 34.0254 41.4908 36.5611 40.4133 37.9933C39.1257 39.7015 36.8395 42.5657 35.2628 44.4313C34.606 45.2067 34.0412 45.8504 34.0147 45.8637C33.9752 45.8767 33.9621 45.6797 33.9621 45.3775C33.9621 43.7875 33.5549 42.0926 32.8453 40.6474C32.5431 40.043 32.4905 39.8985 32.5564 39.8328C32.806 39.6094 36.6294 37.4283 39.0469 36.1276C40.6761 35.2605 43.2249 33.9729 43.2646 33.9992ZM26.6567 38.0723C26.6963 38.0723 26.9985 38.2298 27.3401 38.4139C28.181 38.8737 28.9299 39.3861 29.6 39.9381C29.6262 39.9643 29.2847 40.2403 28.8379 40.5686C27.5897 41.462 25.6977 42.8943 24.5942 43.7747C23.4377 44.6944 23.3986 44.7206 23.5298 44.5236C24.3971 43.1965 24.8305 42.4476 25.2905 41.4885C25.6977 40.6346 26.105 39.6228 26.394 38.7424C26.4991 38.3614 26.6306 38.0723 26.6567 38.0723ZM31.0848 41.5409C31.1503 41.5279 31.2293 41.646 31.5839 42.1717C32.3328 43.2883 32.911 44.7864 33.0557 45.9951L33.0817 46.258L31.2819 46.9544C28.0627 48.2025 25.0934 49.4377 23.0829 50.3573C22.5181 50.6202 21.5326 51.0931 20.8889 51.4086C20.245 51.7369 19.7195 51.9866 19.7195 51.9735C19.7195 51.9604 20.1267 51.6582 20.626 51.2901C24.5548 48.4391 27.9577 45.3119 30.5066 42.1849C30.7826 41.8563 31.0323 41.5541 31.0584 41.541L31.0848 41.5409ZM29.0483 42.0403C29.1008 42.0928 27.603 43.7877 26.5782 44.8256C24.0423 47.4142 21.5327 49.4377 18.4187 51.4086C18.0246 51.6582 17.6699 51.8814 17.6304 51.9079C17.5383 51.9604 17.6566 51.8289 19.0231 50.3442C19.8903 49.4113 20.5472 48.623 21.2961 47.6508C21.7954 47.0071 21.8874 46.9151 22.6102 46.4024C24.5416 45.0096 28.9957 41.9876 29.0483 42.0403Z" fill="url(#paint2_radial_1249_14046)"/>
</g>
<defs>
<linearGradient id="paint0_linear_1249_14046" x1="13.5779" y1="78.8142" x2="19.8636" y2="75.1001" gradientUnits="userSpaceOnUse">
<stop stop-color="#909CA9"/>
<stop offset="1" stop-color="#EDEDEE"/>
</linearGradient>
<linearGradient id="paint1_linear_1249_14046" x1="13.7219" y1="8.79316" x2="18.7795" y2="8.79316" gradientUnits="userSpaceOnUse">
<stop stop-color="#939FAB"/>
<stop offset="1" stop-color="#DCDEE1"/>
</linearGradient>
<radialGradient id="paint2_radial_1249_14046" cx="0" cy="0" r="1" gradientUnits="userSpaceOnUse" gradientTransform="translate(39.2424 31.9882) rotate(-171.457) scale(6.52066 13.0446)">
<stop stop-color="#EE352C"/>
<stop offset="1" stop-color="#A91D22"/>
</radialGradient>
<clipPath id="clip0_1249_14046">
<rect width="79.3044" height="86.8009" fill="white" transform="translate(0.5 0.599609)"/>
</clipPath>
</defs>
</svg>
