<svg width="76" height="76" viewBox="0 0 76 76" fill="none" xmlns="http://www.w3.org/2000/svg">
<path fill-rule="evenodd" clip-rule="evenodd" d="M50.845 71.8924C46.4792 75.7357 40.6526 76.2167 36.0066 74.4424C31.3511 72.6645 27.514 68.4588 27.514 62.7488C27.514 60.8621 29.1099 59.3327 31.0786 59.3327C33.0472 59.3327 34.6431 60.8621 34.6431 62.7488C34.6431 65.2178 36.2436 67.1783 38.6457 68.0956C41.0572 69.0166 43.9082 68.7219 46.0223 66.8608L63.2481 51.6964C68.6509 46.9401 69.4133 40.5574 66.9995 35.3072C64.5738 30.031 58.91 25.8813 51.1721 25.9961L32.9766 26.2659C30.1722 26.3075 28.2701 28.3253 28.2701 30.4048C28.2701 32.683 30.5003 34.9977 34.1421 34.9977L43.315 34.9977C49.6999 34.9977 55.2323 39.7267 55.2323 45.9694C55.2323 52.139 49.8208 56.8461 43.507 56.9397L25.3115 57.2095C14.6063 57.3682 6.38941 51.5205 2.84993 43.8217C-0.701474 36.0969 0.486531 26.5269 8.30252 19.6463L25.5283 4.48184C29.8941 0.638462 35.7207 0.157498 40.3667 1.93177C45.0222 3.70969 48.8593 7.91537 48.8593 13.6254C48.8593 15.5121 47.2634 17.0415 45.2948 17.0415C43.3261 17.0415 41.7302 15.5121 41.7302 13.6254C41.7302 11.1564 40.1297 9.19592 37.7277 8.27859C35.3161 7.35762 32.4652 7.6523 30.3511 9.51339L13.1253 24.6778C7.72242 29.4341 6.96009 35.8168 9.37384 41.067C11.7995 46.3432 17.4633 50.4929 25.2012 50.3781L43.3967 50.1083C46.2012 50.0667 48.1032 48.0489 48.1032 45.9694C48.1032 43.8665 46.1562 41.8299 43.315 41.8299L34.1421 41.8299C27.5767 41.8299 21.1411 37.3595 21.1411 30.4048C21.1411 24.2352 26.5525 19.5281 32.8663 19.4345L51.0618 19.1647C61.767 19.006 69.9839 24.8537 73.5234 32.5525C77.0748 40.2773 75.8868 49.8473 68.0708 56.7279L50.845 71.8924Z" fill="#6E2FD5"/>
</svg>
