<svg width="181" height="180" viewBox="0 0 181 180" fill="none" xmlns="http://www.w3.org/2000/svg">
<ellipse opacity="0.1" cx="90.5" cy="174.6" rx="90" ry="5.4" fill="#2A2D3E" fill-opacity="0.5"/>
<path fill-rule="evenodd" clip-rule="evenodd" d="M109.866 32.4028C109.591 32.4075 109.367 32.5284 109.201 32.7485C109.025 32.9816 108.923 33.3237 108.985 33.7002C109.095 34.3749 109.832 35.0895 110.964 35.1581C114.961 35.4001 119.114 36.9948 122.622 39.3626C126.127 41.7281 129.136 44.9658 130.706 48.6414C131.146 49.6707 132.024 50.1071 132.646 50.0056C132.998 49.9481 133.269 49.7561 133.42 49.535C133.561 49.3281 133.598 49.1053 133.522 48.871C130.463 39.408 119.976 32.2304 109.866 32.4028ZM105.432 34.2806C105.004 31.6627 106.791 28.8547 109.805 28.8034C121.408 28.6055 133.374 36.7087 136.948 47.7636C137.863 50.5959 135.791 53.1395 133.226 53.5585C130.512 54.0019 128.284 52.1346 127.396 50.0557C126.162 47.1675 123.691 44.4274 120.608 42.3465C117.528 40.2679 113.985 38.9476 110.747 38.7515C108.406 38.6097 105.882 37.0398 105.432 34.2806ZM91.6202 39.357C71.9732 39.357 55.5768 53.1439 51.8338 71.4304C36.2047 72.9172 23.8996 85.7761 23.8996 101.618C23.8996 105.423 24.61 109.068 25.9082 112.43C23.4944 116.296 22.0996 120.863 22.0996 125.757C22.0996 139.675 33.382 150.957 47.2996 150.957C61.2172 150.957 72.4996 139.675 72.4996 125.757C72.4996 111.839 61.2172 100.557 47.2996 100.557C39.8433 100.557 33.1433 103.795 28.5294 108.942C27.8587 106.615 27.4996 104.159 27.4996 101.618C27.4996 87.3003 38.9698 75.6468 53.4393 74.9225C54.2839 74.8802 54.9852 74.2558 55.1247 73.4218C58.0081 56.186 73.2284 42.957 91.6202 42.957C112.078 42.957 128.654 59.2994 128.654 79.3427V85.707C128.654 86.7011 129.46 87.507 130.454 87.507H133.27C144.783 87.507 154.123 96.7342 154.123 107.982C154.123 119.23 144.783 128.457 133.27 128.457H116.7C115.706 128.457 114.9 129.263 114.9 130.257C114.9 131.251 115.706 132.057 116.7 132.057H133.27C146.714 132.057 157.723 121.275 157.723 107.982C157.723 94.6891 146.714 83.907 133.27 83.907H132.254V79.3427C132.254 57.2543 114.009 39.357 91.6202 39.357ZM77.1803 102.357C74.185 102.357 72.4997 98.9124 74.338 96.5476L87.9683 79.0134C89.4096 77.1593 92.2115 77.1593 93.6528 79.0134L107.283 96.5476C109.121 98.9124 107.436 102.357 104.441 102.357H95.3105V127.107C95.3105 129.095 93.6988 130.707 91.7105 130.707H89.9105C87.9223 130.707 86.3105 129.095 86.3105 127.107V102.357H77.1803ZM25.6996 125.757C25.6996 113.828 35.3703 104.157 47.2996 104.157C59.229 104.157 68.8996 113.828 68.8996 125.757C68.8996 137.686 59.229 147.357 47.2996 147.357C35.3703 147.357 25.6996 137.686 25.6996 125.757ZM42.7996 114.057C42.7996 111.572 44.8143 109.557 47.2996 109.557C49.7849 109.557 51.7996 111.572 51.7996 114.057V124.857C51.7996 127.342 49.7849 129.357 47.2996 129.357C44.8143 129.357 42.7996 127.342 42.7996 124.857V114.057ZM47.2996 113.157C46.8026 113.157 46.3996 113.56 46.3996 114.057V124.857C46.3996 125.354 46.8026 125.757 47.2996 125.757C47.7967 125.757 48.1996 125.354 48.1996 124.857V114.057C48.1996 113.56 47.7967 113.157 47.2996 113.157ZM47.2996 141.957C44.8143 141.957 42.7996 139.942 42.7996 137.457C42.7996 134.972 44.8143 132.957 47.2996 132.957C49.7849 132.957 51.7996 134.972 51.7996 137.457C51.7996 139.942 49.7849 141.957 47.2996 141.957ZM46.3996 137.457C46.3996 137.954 46.8026 138.357 47.2996 138.357C47.7967 138.357 48.1996 137.954 48.1996 137.457C48.1996 136.96 47.7967 136.557 47.2996 136.557C46.8026 136.557 46.3996 136.96 46.3996 137.457Z" fill="#2A2D3E" fill-opacity="0.5"/>
</svg>
